<svg width="188" height="47" viewBox="0 0 188 47" fill="none" xmlns="http://www.w3.org/2000/svg">
<path opacity="0.8" d="M76.6406 33.5612V27.4933H80.7328V28.2099H77.4443V30.0919H80.2907V30.8086H77.4443V33.5679H76.6406V33.5612Z" fill="white"/>
<path opacity="0.8" d="M84.5706 33.5612V32.9182C84.229 33.4138 83.7602 33.6617 83.1775 33.6617C82.9163 33.6617 82.6752 33.6148 82.4542 33.5143C82.2265 33.4139 82.059 33.2933 81.9519 33.1393C81.8447 32.9919 81.7643 32.8044 81.7241 32.5834C81.6906 32.436 81.6772 32.2083 81.6772 31.8868V29.1609H82.4207V31.5988C82.4207 31.9873 82.4341 32.2485 82.4675 32.3824C82.5144 32.5767 82.6149 32.7307 82.7689 32.8446C82.923 32.9584 83.1105 33.012 83.3316 33.012C83.5526 33.012 83.7669 32.9517 83.9611 32.8379C84.1553 32.724 84.296 32.57 84.3764 32.3691C84.4567 32.1748 84.4969 31.8868 84.4969 31.5118V29.1542H85.2403V33.5545H84.5706V33.5612Z" fill="white"/>
<path opacity="0.8" d="M86.3988 33.5613V29.161H87.0685V29.7839C87.39 29.3017 87.8588 29.0605 88.4683 29.0605C88.7362 29.0605 88.9773 29.1074 89.1983 29.2012C89.4194 29.295 89.5868 29.4222 89.694 29.5763C89.8078 29.7303 89.8815 29.9111 89.9284 30.1255C89.9551 30.2661 89.9685 30.5072 89.9685 30.8488V33.5546H89.2251V30.8823C89.2251 30.5809 89.1983 30.3532 89.1381 30.1991C89.0778 30.0518 88.9773 29.9312 88.83 29.8375C88.6826 29.7504 88.5085 29.7035 88.3076 29.7035C87.9928 29.7035 87.7182 29.804 87.4838 30.0049C87.2561 30.2058 87.1355 30.5876 87.1355 31.1502V33.5546H86.3921L86.3988 33.5613Z" fill="white"/>
<path opacity="0.8" d="M93.9673 33.5612V33.0053C93.686 33.4407 93.2774 33.6617 92.7349 33.6617C92.3866 33.6617 92.0651 33.5679 91.7705 33.3737C91.4758 33.1795 91.2481 32.9116 91.0873 32.5633C90.9266 32.215 90.8462 31.8199 90.8462 31.3711C90.8462 30.9224 90.9199 30.534 91.0672 30.179C91.2146 29.824 91.4356 29.5494 91.7236 29.3552C92.0183 29.1677 92.3398 29.0672 92.7081 29.0672C92.976 29.0672 93.2104 29.1208 93.4181 29.2346C93.6257 29.3485 93.7931 29.4891 93.9204 29.67V27.4933H94.6638V33.5612H93.974H93.9673ZM91.6097 31.3645C91.6097 31.927 91.7303 32.349 91.9647 32.6303C92.1991 32.9116 92.4804 33.0455 92.8086 33.0455C93.1367 33.0455 93.4114 32.9116 93.6391 32.6437C93.8668 32.3758 93.9806 31.9739 93.9806 31.4247C93.9806 30.822 93.8668 30.3799 93.6324 30.0986C93.398 29.8173 93.1167 29.6767 92.7751 29.6767C92.4335 29.6767 92.1656 29.8106 91.9446 30.0852C91.7236 30.3531 91.6097 30.7818 91.6097 31.3645Z" fill="white"/>
<path opacity="0.8" d="M95.5544 31.3645C95.5544 30.5474 95.7821 29.9446 96.2309 29.5562C96.6059 29.228 97.0681 29.0673 97.6106 29.0673C98.2133 29.0673 98.7089 29.2682 99.0907 29.6633C99.4724 30.0585 99.6667 30.6077 99.6667 31.3042C99.6667 31.8668 99.5796 32.3156 99.4122 32.637C99.2448 32.9585 98.9969 33.213 98.6687 33.3939C98.3473 33.5747 97.9923 33.6618 97.6039 33.6618C96.9877 33.6618 96.4921 33.4675 96.1103 33.0724C95.7286 32.6772 95.541 32.1079 95.541 31.3645H95.5544ZM96.3179 31.3645C96.3179 31.9271 96.4385 32.349 96.6863 32.6303C96.9341 32.9116 97.2422 33.0523 97.6106 33.0523C97.9789 33.0523 98.287 32.9116 98.5348 32.6303C98.7826 32.349 98.9032 31.9204 98.9032 31.3444C98.9032 30.8019 98.7826 30.3867 98.5348 30.1054C98.287 29.8241 97.9789 29.6834 97.6106 29.6834C97.2422 29.6834 96.9274 29.8241 96.6863 30.0987C96.4385 30.38 96.3179 30.7952 96.3179 31.3645Z" fill="white"/>
<path opacity="0.8" d="M105.373 33.5612V27.4933H109.76V28.2099H106.177V30.0718H109.532V30.7818H106.177V32.8446H109.901V33.5612H105.373Z" fill="white"/>
<path opacity="0.8" d="M113.799 33.5612V32.9182C113.457 33.4138 112.988 33.6617 112.406 33.6617C112.144 33.6617 111.903 33.6148 111.682 33.5143C111.454 33.4139 111.287 33.2933 111.18 33.1393C111.073 32.9919 110.992 32.8044 110.952 32.5834C110.919 32.436 110.905 32.2083 110.905 31.8868V29.1609H111.649V31.5988C111.649 31.9873 111.662 32.2485 111.696 32.3824C111.742 32.5767 111.843 32.7307 111.997 32.8446C112.151 32.9584 112.339 33.012 112.56 33.012C112.781 33.012 112.995 32.9517 113.189 32.8379C113.383 32.724 113.524 32.57 113.604 32.3691C113.685 32.1748 113.725 31.8868 113.725 31.5118V29.1542H114.468V33.5545H113.799V33.5612Z" fill="white"/>
<path opacity="0.8" d="M115.62 33.5613V29.161H116.29V29.8308C116.464 29.516 116.618 29.3151 116.765 29.2146C116.913 29.1141 117.067 29.0673 117.241 29.0673C117.489 29.0673 117.75 29.1476 118.004 29.3084L117.75 29.9982C117.569 29.8911 117.388 29.8375 117.201 29.8375C117.04 29.8375 116.892 29.8844 116.759 29.9848C116.625 30.0853 116.538 30.2192 116.484 30.3934C116.404 30.6613 116.357 30.9493 116.357 31.264V33.568H115.613L115.62 33.5613Z" fill="white"/>
<path opacity="0.8" d="M118.178 31.3645C118.178 30.5474 118.406 29.9446 118.855 29.5562C119.23 29.228 119.692 29.0673 120.235 29.0673C120.837 29.0673 121.333 29.2682 121.715 29.6633C122.096 30.0585 122.291 30.6077 122.291 31.3042C122.291 31.8668 122.204 32.3156 122.036 32.637C121.869 32.9585 121.621 33.213 121.293 33.3939C120.971 33.5747 120.616 33.6618 120.228 33.6618C119.612 33.6618 119.116 33.4675 118.734 33.0724C118.353 32.6772 118.165 32.1079 118.165 31.3645H118.178ZM118.942 31.3645C118.942 31.9271 119.062 32.349 119.31 32.6303C119.558 32.9116 119.866 33.0523 120.235 33.0523C120.603 33.0523 120.911 32.9116 121.159 32.6303C121.407 32.349 121.527 31.9204 121.527 31.3444C121.527 30.8019 121.407 30.3867 121.159 30.1054C120.911 29.8241 120.603 29.6834 120.235 29.6834C119.866 29.6834 119.551 29.8241 119.31 30.0987C119.069 30.3733 118.942 30.7952 118.942 31.3645Z" fill="white"/>
<path opacity="0.8" d="M123.168 35.2491V29.1677H123.845V29.737C124.006 29.516 124.186 29.3486 124.387 29.2347C124.588 29.1208 124.836 29.0673 125.117 29.0673C125.492 29.0673 125.821 29.161 126.109 29.3552C126.397 29.5495 126.611 29.8241 126.758 30.1723C126.906 30.5273 126.979 30.9091 126.979 31.331C126.979 31.7797 126.899 32.1883 126.738 32.5433C126.577 32.9049 126.343 33.1795 126.035 33.3738C125.727 33.568 125.405 33.6618 125.064 33.6618C124.816 33.6618 124.595 33.6082 124.394 33.5077C124.2 33.4005 124.032 33.2733 123.905 33.1126V35.2558H123.162L123.168 35.2491ZM123.845 31.3913C123.845 31.9539 123.959 32.3758 124.186 32.6437C124.414 32.9116 124.695 33.0523 125.017 33.0523C125.338 33.0523 125.633 32.9116 125.867 32.6303C126.102 32.349 126.222 31.9137 126.222 31.331C126.222 30.7483 126.109 30.3532 125.874 30.0719C125.646 29.7906 125.365 29.6566 125.05 29.6566C124.736 29.6566 124.454 29.804 124.206 30.0987C123.959 30.3934 123.838 30.8287 123.838 31.3913H123.845Z" fill="white"/>
<path opacity="0.8" d="M130.897 32.1481L131.667 32.2419C131.547 32.6906 131.319 33.0389 130.991 33.2867C130.663 33.5345 130.241 33.6617 129.732 33.6617C129.089 33.6617 128.58 33.4608 128.205 33.0657C127.83 32.6705 127.642 32.1146 127.642 31.398C127.642 30.6813 127.83 30.0853 128.211 29.6767C128.593 29.2682 129.089 29.0605 129.692 29.0605C130.294 29.0605 130.756 29.2615 131.132 29.6633C131.507 30.0652 131.687 30.6278 131.687 31.3511C131.687 31.398 131.687 31.4583 131.687 31.552H128.406C128.432 32.0343 128.573 32.4026 128.814 32.6638C129.062 32.9183 129.363 33.0456 129.732 33.0456C130.006 33.0456 130.241 32.9719 130.428 32.8312C130.623 32.6906 130.777 32.4562 130.89 32.1414L130.897 32.1481ZM128.453 30.9426H130.91C130.877 30.5742 130.783 30.2929 130.629 30.1121C130.395 29.8241 130.087 29.6834 129.705 29.6834C129.363 29.6834 129.075 29.7973 128.841 30.025C128.607 30.2527 128.479 30.5608 128.453 30.9426Z" fill="white"/>
<path opacity="0.8" d="M135.485 33.5612V32.9182C135.144 33.4138 134.675 33.6617 134.092 33.6617C133.831 33.6617 133.59 33.6148 133.369 33.5143C133.141 33.4139 132.974 33.2933 132.866 33.1393C132.759 32.9919 132.679 32.8044 132.639 32.5834C132.605 32.436 132.592 32.2083 132.592 31.8868V29.1609H133.335V31.5988C133.335 31.9873 133.349 32.2485 133.382 32.3824C133.429 32.5767 133.529 32.7307 133.683 32.8446C133.838 32.9584 134.025 33.012 134.246 33.012C134.467 33.012 134.681 32.9517 134.876 32.8379C135.07 32.724 135.211 32.57 135.291 32.3691C135.371 32.1748 135.411 31.8868 135.411 31.5118V29.1542H136.155V33.5545H135.485V33.5612Z" fill="white"/>
<path opacity="0.8" d="M79.3598 43.7348V43.1789C79.0785 43.6142 78.67 43.8352 78.1275 43.8352C77.7792 43.8352 77.4577 43.7415 77.163 43.5472C76.8683 43.353 76.6407 43.0851 76.4799 42.7368C76.3192 42.3886 76.2388 41.9934 76.2388 41.5447C76.2388 41.0959 76.3125 40.7075 76.4598 40.3525C76.6071 39.9975 76.8281 39.7229 77.1161 39.5287C77.4108 39.3412 77.7323 39.2407 78.1007 39.2407C78.3686 39.2407 78.603 39.2943 78.8106 39.4082C79.0183 39.522 79.1857 39.6627 79.3129 39.8435V37.6668H80.0564V43.7348H79.3665H79.3598ZM77.0023 41.538C77.0023 42.1006 77.1229 42.5225 77.3573 42.8038C77.5917 43.0851 77.873 43.2191 78.2011 43.2191C78.5293 43.2191 78.8039 43.0851 79.0317 42.8172C79.2594 42.5493 79.3732 42.1475 79.3732 41.5983C79.3732 40.9955 79.2594 40.5534 79.025 40.2722C78.7905 39.9909 78.5092 39.8502 78.1677 39.8502C77.8261 39.8502 77.5582 39.9842 77.3372 40.2588C77.1162 40.5267 77.0023 40.9553 77.0023 41.538Z" fill="white"/>
<path opacity="0.8" d="M84.2291 42.3216L84.9993 42.4154C84.8788 42.8641 84.6511 43.2124 84.3229 43.4602C83.9947 43.708 83.5728 43.8352 83.0637 43.8352C82.4208 43.8352 81.9118 43.6343 81.5367 43.2391C81.1617 42.844 80.9741 42.2881 80.9741 41.5715C80.9741 40.8548 81.1617 40.2587 81.5434 39.8502C81.9252 39.4417 82.4208 39.2407 83.0236 39.2407C83.6263 39.2407 84.0885 39.4416 84.4635 39.8435C84.8386 40.2453 85.0194 40.8079 85.0194 41.5313C85.0194 41.5782 85.0194 41.6451 85.0194 41.7322H81.7376C81.7644 42.2144 81.9051 42.5828 82.1462 42.844C82.3873 43.1052 82.6954 43.2257 83.0637 43.2257C83.3383 43.2257 83.5728 43.1521 83.7603 43.0114C83.9545 42.8708 84.1086 42.6364 84.2224 42.3216H84.2291ZM81.7845 41.116H84.2425C84.209 40.7477 84.1153 40.4664 83.9612 40.2855C83.7268 39.9975 83.4187 39.8569 83.037 39.8569C82.6954 39.8569 82.4074 39.9707 82.173 40.1985C81.9386 40.4262 81.8113 40.7343 81.7845 41.116Z" fill="white"/>
<path opacity="0.8" d="M88.3881 43.7348V37.6668H90.4777C90.9465 37.6668 91.3082 37.6936 91.556 37.7539C91.9042 37.8343 92.1989 37.9816 92.4467 38.1892C92.7682 38.4571 93.0093 38.8054 93.1634 39.2273C93.3241 39.6493 93.4045 40.1315 93.4045 40.6673C93.4045 41.1294 93.3509 41.538 93.2437 41.893C93.1366 42.2479 92.9959 42.5426 92.8285 42.777C92.6611 43.0114 92.4735 43.1923 92.2726 43.3262C92.0717 43.4602 91.8306 43.5606 91.5493 43.6276C91.268 43.6946 90.9398 43.7281 90.5714 43.7281H88.3813L88.3881 43.7348ZM89.1918 43.0181H90.4844C90.8862 43.0181 91.201 42.9779 91.4287 42.9043C91.6564 42.8306 91.8373 42.7234 91.9712 42.5895C92.1587 42.402 92.3128 42.1408 92.4133 41.8193C92.5204 41.4978 92.574 41.1093 92.574 40.6472C92.574 40.0109 92.4669 39.522 92.2592 39.1805C92.0516 38.8389 91.7971 38.6112 91.5024 38.4973C91.2881 38.4169 90.9398 38.3701 90.4643 38.3701H89.1918V43.0047V43.0181Z" fill="white"/>
<path opacity="0.8" d="M97.4298 42.3216L98.2 42.4154C98.0795 42.8641 97.8517 43.2124 97.5236 43.4602C97.1954 43.708 96.7734 43.8352 96.2644 43.8352C95.6215 43.8352 95.1124 43.6343 94.7374 43.2391C94.3623 42.844 94.1748 42.2881 94.1748 41.5715C94.1748 40.8548 94.3623 40.2587 94.7441 39.8502C95.1258 39.4417 95.6215 39.2407 96.2242 39.2407C96.827 39.2407 97.2891 39.4416 97.6642 39.8435C98.0392 40.2453 98.2201 40.8079 98.2201 41.5313C98.2201 41.5782 98.2201 41.6451 98.2201 41.7322H94.9383C94.9651 42.2144 95.1058 42.5828 95.3469 42.844C95.5947 43.0985 95.8961 43.2257 96.2644 43.2257C96.539 43.2257 96.7734 43.1521 96.961 43.0114C97.1552 42.8708 97.3092 42.6364 97.4231 42.3216H97.4298ZM94.9852 41.116H97.4432C97.4097 40.7477 97.3159 40.4664 97.1619 40.2855C96.9275 39.9975 96.6194 39.8569 96.2376 39.8569C95.8961 39.8569 95.6081 39.9707 95.3736 40.1985C95.1392 40.4262 95.012 40.7343 94.9852 41.116Z" fill="white"/>
<path opacity="0.8" d="M98.8359 42.4221L99.5727 42.3082C99.6129 42.6029 99.7267 42.8306 99.921 42.9846C100.115 43.1387 100.376 43.2191 100.711 43.2191C101.046 43.2191 101.307 43.1521 101.475 43.0114C101.642 42.8708 101.723 42.71 101.723 42.5225C101.723 42.3551 101.649 42.2211 101.502 42.1274C101.401 42.0604 101.147 41.98 100.738 41.8729C100.189 41.7322 99.8138 41.6184 99.5995 41.5179C99.3851 41.4174 99.2311 41.2768 99.1173 41.1026C99.0101 40.9218 98.9565 40.7276 98.9565 40.5133C98.9565 40.319 99.0034 40.1382 99.0904 39.9708C99.1775 39.8033 99.3048 39.6627 99.4588 39.5555C99.5727 39.4685 99.7334 39.3948 99.9343 39.3412C100.135 39.2809 100.35 39.2542 100.577 39.2542C100.919 39.2542 101.227 39.301 101.488 39.4015C101.749 39.502 101.944 39.6359 102.064 39.8033C102.191 39.9708 102.272 40.1985 102.319 40.4865L101.589 40.5869C101.555 40.3592 101.461 40.1851 101.301 40.0578C101.14 39.9306 100.919 39.8703 100.631 39.8703C100.289 39.8703 100.042 39.9239 99.9009 40.0377C99.7535 40.1516 99.6798 40.2856 99.6798 40.4329C99.6798 40.5267 99.7133 40.6137 99.7736 40.6941C99.8339 40.7745 99.9276 40.8414 100.062 40.895C100.135 40.9218 100.356 40.9888 100.718 41.0826C101.247 41.2232 101.615 41.3371 101.823 41.4308C102.031 41.5246 102.198 41.6519 102.312 41.8193C102.426 41.9867 102.493 42.2011 102.493 42.4556C102.493 42.7101 102.419 42.9378 102.278 43.1588C102.131 43.3798 101.923 43.5473 101.649 43.6678C101.374 43.7884 101.066 43.8486 100.725 43.8486C100.155 43.8486 99.72 43.7281 99.4187 43.4937C99.1173 43.2593 98.9297 42.9043 98.8426 42.4355L98.8359 42.4221Z" fill="white"/>
<path opacity="0.8" d="M106.384 42.3216L107.155 42.4154C107.034 42.8641 106.806 43.2124 106.478 43.4602C106.15 43.708 105.728 43.8352 105.219 43.8352C104.576 43.8352 104.067 43.6343 103.692 43.2391C103.317 42.844 103.129 42.2881 103.129 41.5715C103.129 40.8548 103.317 40.2587 103.699 39.8502C104.08 39.4417 104.576 39.2407 105.179 39.2407C105.782 39.2407 106.244 39.4416 106.619 39.8435C106.994 40.2453 107.175 40.8079 107.175 41.5313C107.175 41.5782 107.175 41.6451 107.175 41.7322H103.893C103.92 42.2144 104.06 42.5828 104.301 42.844C104.543 43.1052 104.851 43.2257 105.219 43.2257C105.494 43.2257 105.728 43.1521 105.916 43.0114C106.11 42.8708 106.264 42.6364 106.378 42.3216H106.384ZM103.94 41.116H106.398C106.364 40.7477 106.271 40.4664 106.116 40.2855C105.882 39.9975 105.574 39.8569 105.192 39.8569C104.851 39.8569 104.563 39.9707 104.328 40.1985C104.094 40.4262 103.967 40.7343 103.94 41.116Z" fill="white"/>
<path opacity="0.8" d="M108.085 43.7348V39.3345H108.755V39.9574C109.077 39.4752 109.545 39.2341 110.155 39.2341C110.423 39.2341 110.664 39.2809 110.885 39.3747C111.106 39.4685 111.273 39.5957 111.38 39.7498C111.494 39.9038 111.568 40.0847 111.615 40.299C111.642 40.4396 111.655 40.6807 111.655 41.0223V43.7281H110.912V41.0558C110.912 40.7544 110.885 40.5267 110.825 40.3726C110.764 40.2253 110.664 40.1047 110.516 40.011C110.369 39.9239 110.195 39.877 109.994 39.877C109.679 39.877 109.405 39.9775 109.17 40.1784C108.943 40.3793 108.822 40.7611 108.822 41.3237V43.7281H108.079L108.085 43.7348Z" fill="white"/>
<path opacity="0.8" d="M114.026 43.7347L112.352 39.3345H113.135L114.079 41.9666C114.18 42.2479 114.274 42.5493 114.361 42.8507C114.428 42.6162 114.522 42.3416 114.635 42.0135L115.613 39.3278H116.377L114.709 43.728H114.013L114.026 43.7347Z" fill="white"/>
<path opacity="0.8" d="M116.765 41.538C116.765 40.7209 116.993 40.1181 117.442 39.7296C117.817 39.4015 118.279 39.2407 118.822 39.2407C119.424 39.2407 119.92 39.4417 120.302 39.8368C120.683 40.232 120.878 40.7811 120.878 41.4777C120.878 42.0403 120.791 42.489 120.623 42.8105C120.456 43.132 120.208 43.3865 119.88 43.5673C119.558 43.7482 119.203 43.8352 118.815 43.8352C118.199 43.8352 117.703 43.641 117.321 43.2458C116.94 42.8507 116.752 42.2814 116.752 41.538H116.765ZM117.529 41.538C117.529 42.1006 117.649 42.5225 117.897 42.8038C118.145 43.0851 118.453 43.2257 118.822 43.2257C119.19 43.2257 119.498 43.0851 119.746 42.8038C119.994 42.5225 120.114 42.0939 120.114 41.5179C120.114 40.9754 119.994 40.5601 119.746 40.2788C119.498 39.9976 119.19 39.8569 118.822 39.8569C118.453 39.8569 118.138 39.9975 117.897 40.2721C117.649 40.5534 117.529 40.9687 117.529 41.538Z" fill="white"/>
<path opacity="0.8" d="M121.742 43.7348V37.6668H122.485V43.7348H121.742Z" fill="white"/>
<path opacity="0.8" d="M124.863 43.7347L123.188 39.3345H123.972L124.916 41.9666C125.017 42.2479 125.111 42.5493 125.198 42.8507C125.265 42.6162 125.358 42.3416 125.472 42.0135L126.45 39.3278H127.214L125.546 43.728H124.849L124.863 43.7347Z" fill="white"/>
<path opacity="0.8" d="M127.89 38.5241V37.6668H128.634V38.5241H127.89ZM127.89 43.7348V39.3345H128.634V43.7348H127.89Z" fill="white"/>
<path opacity="0.8" d="M129.765 43.7348V39.3345H130.435V39.9507C130.576 39.7364 130.756 39.5622 130.984 39.4283C131.212 39.2943 131.473 39.2341 131.768 39.2341C132.096 39.2341 132.357 39.301 132.571 39.435C132.779 39.5689 132.926 39.7565 133.013 40.0043C133.362 39.4886 133.817 39.2341 134.373 39.2341C134.808 39.2341 135.143 39.3546 135.378 39.5957C135.612 39.8368 135.733 40.2119 135.733 40.7142V43.7348H134.989V40.962C134.989 40.6606 134.962 40.4463 134.916 40.3191C134.869 40.1851 134.782 40.0846 134.654 40.0043C134.527 39.9239 134.38 39.8837 134.206 39.8837C133.897 39.8837 133.643 39.9842 133.435 40.1918C133.234 40.3994 133.127 40.7276 133.127 41.1763V43.7281H132.384V40.8682C132.384 40.5401 132.324 40.2856 132.203 40.1248C132.082 39.9574 131.882 39.877 131.607 39.877C131.399 39.877 131.205 39.9306 131.024 40.0445C130.843 40.1583 130.716 40.3191 130.636 40.5267C130.555 40.741 130.515 41.0424 130.515 41.4442V43.7281H129.772L129.765 43.7348Z" fill="white"/>
<path opacity="0.8" d="M139.838 42.3216L140.609 42.4154C140.488 42.8641 140.26 43.2124 139.932 43.4602C139.604 43.708 139.182 43.8352 138.673 43.8352C138.03 43.8352 137.521 43.6343 137.146 43.2391C136.771 42.844 136.583 42.2881 136.583 41.5715C136.583 40.8548 136.771 40.2587 137.153 39.8502C137.535 39.4417 138.03 39.2407 138.633 39.2407C139.236 39.2407 139.698 39.4416 140.073 39.8435C140.448 40.2453 140.629 40.8079 140.629 41.5313C140.629 41.5782 140.629 41.6451 140.629 41.7322H137.347C137.374 42.2144 137.514 42.5828 137.756 42.844C138.003 43.0985 138.305 43.2257 138.673 43.2257C138.948 43.2257 139.182 43.1521 139.37 43.0114C139.564 42.8708 139.718 42.6364 139.832 42.3216H139.838ZM137.394 41.116H139.852C139.818 40.7477 139.725 40.4664 139.571 40.2855C139.336 39.9975 139.028 39.8569 138.646 39.8569C138.305 39.8569 138.017 39.9707 137.782 40.1985C137.548 40.4262 137.421 40.7343 137.394 41.116Z" fill="white"/>
<path opacity="0.8" d="M141.546 43.7348V39.3345H142.216V39.9574C142.537 39.4752 143.006 39.2341 143.616 39.2341C143.884 39.2341 144.125 39.2809 144.346 39.3747C144.567 39.4685 144.734 39.5957 144.841 39.7498C144.955 39.9038 145.029 40.0847 145.076 40.299C145.103 40.4396 145.116 40.6807 145.116 41.0223V43.7281H144.373V41.0558C144.373 40.7544 144.346 40.5267 144.286 40.3726C144.225 40.2253 144.125 40.1047 143.977 40.011C143.83 39.9239 143.656 39.877 143.455 39.877C143.14 39.877 142.866 39.9775 142.631 40.1784C142.404 40.3793 142.283 40.7611 142.283 41.3237V43.7281H141.54L141.546 43.7348Z" fill="white"/>
<path opacity="0.8" d="M147.889 43.0717L147.996 43.7281C147.788 43.775 147.601 43.7951 147.433 43.7951C147.166 43.7951 146.951 43.7549 146.804 43.6678C146.657 43.5807 146.549 43.4669 146.489 43.3329C146.429 43.1923 146.395 42.8976 146.395 42.4556V39.9239H145.846V39.3412H146.395V38.2495L147.139 37.8008V39.3345H147.889V39.9172H147.139V42.489C147.139 42.7034 147.152 42.8373 147.179 42.8976C147.206 42.9579 147.246 43.0047 147.306 43.0449C147.367 43.0784 147.454 43.0985 147.561 43.0985C147.641 43.0985 147.755 43.0918 147.889 43.0717Z" fill="white"/>
<path opacity="0.8" d="M148.338 41.538C148.338 40.7209 148.565 40.1181 149.014 39.7296C149.389 39.4015 149.851 39.2407 150.394 39.2407C150.997 39.2407 151.492 39.4417 151.874 39.8368C152.256 40.232 152.45 40.7811 152.45 41.4777C152.45 42.0403 152.363 42.489 152.195 42.8105C152.028 43.132 151.78 43.3865 151.452 43.5673C151.13 43.7482 150.776 43.8352 150.387 43.8352C149.771 43.8352 149.275 43.641 148.894 43.2458C148.512 42.8507 148.324 42.2814 148.324 41.538H148.338ZM149.101 41.538C149.101 42.1006 149.222 42.5225 149.47 42.8038C149.717 43.0851 150.025 43.2257 150.394 43.2257C150.762 43.2257 151.07 43.0851 151.318 42.8038C151.566 42.5225 151.686 42.0939 151.686 41.5179C151.686 40.9754 151.566 40.5601 151.318 40.2788C151.07 39.9976 150.762 39.8569 150.394 39.8569C150.025 39.8569 149.711 39.9975 149.47 40.2721C149.222 40.5534 149.101 40.9687 149.101 41.538Z" fill="white"/>
<path opacity="0.8" d="M155.798 43.7348V37.6668H158.491C159.033 37.6668 159.442 37.7204 159.723 37.8276C160.004 37.9347 160.232 38.1289 160.4 38.4035C160.567 38.6781 160.654 38.9862 160.654 39.3211C160.654 39.7497 160.513 40.1181 160.239 40.4128C159.957 40.7075 159.529 40.895 158.946 40.9754C159.16 41.0758 159.321 41.1763 159.428 41.2768C159.663 41.4911 159.884 41.759 160.098 42.0872L161.156 43.7415H160.145L159.341 42.4756C159.107 42.114 158.913 41.8327 158.759 41.6384C158.605 41.4442 158.471 41.3103 158.35 41.2299C158.23 41.1495 158.109 41.0959 157.982 41.0692C157.888 41.0491 157.741 41.0424 157.533 41.0424H156.602V43.7348H155.798ZM156.602 40.3458H158.33C158.698 40.3458 158.986 40.3056 159.194 40.232C159.402 40.1583 159.556 40.0377 159.663 39.8703C159.77 39.7029 159.824 39.522 159.824 39.3278C159.824 39.0398 159.716 38.8054 159.509 38.6179C159.301 38.4303 158.973 38.3433 158.524 38.3433H156.602V40.3525V40.3458Z" fill="white"/>
<path opacity="0.8" d="M164.82 42.3216L165.59 42.4154C165.47 42.8641 165.242 43.2124 164.914 43.4602C164.586 43.708 164.164 43.8352 163.655 43.8352C163.012 43.8352 162.503 43.6343 162.128 43.2391C161.752 42.844 161.565 42.2881 161.565 41.5715C161.565 40.8548 161.752 40.2587 162.134 39.8502C162.516 39.4417 163.012 39.2407 163.614 39.2407C164.217 39.2407 164.679 39.4416 165.054 39.8435C165.429 40.2453 165.61 40.8079 165.61 41.5313C165.61 41.5782 165.61 41.6451 165.61 41.7322H162.328C162.355 42.2144 162.496 42.5828 162.737 42.844C162.978 43.1052 163.286 43.2257 163.655 43.2257C163.929 43.2257 164.164 43.1521 164.351 43.0114C164.545 42.8708 164.699 42.6364 164.813 42.3216H164.82ZM162.375 41.116H164.833C164.8 40.7477 164.706 40.4664 164.552 40.2855C164.318 39.9975 164.01 39.8569 163.628 39.8569C163.286 39.8569 162.998 39.9707 162.764 40.1985C162.529 40.4262 162.402 40.7343 162.375 41.116Z" fill="white"/>
<path opacity="0.8" d="M166.394 44.1031L167.117 44.2103C167.151 44.4313 167.231 44.5987 167.372 44.6992C167.559 44.8398 167.807 44.9068 168.128 44.9068C168.477 44.9068 168.738 44.8398 168.925 44.6992C169.113 44.5585 169.24 44.371 169.307 44.1165C169.347 43.9625 169.361 43.6477 169.361 43.1588C169.033 43.5405 168.631 43.7348 168.142 43.7348C167.539 43.7348 167.07 43.5137 166.735 43.0784C166.407 42.6431 166.24 42.1207 166.24 41.5112C166.24 41.0892 166.313 40.7075 166.467 40.3525C166.622 39.9975 166.843 39.7229 167.131 39.5287C167.419 39.3345 167.76 39.2407 168.149 39.2407C168.664 39.2407 169.093 39.4483 169.434 39.8703V39.3412H170.124V43.1387C170.124 43.8218 170.057 44.3108 169.917 44.592C169.776 44.8733 169.555 45.101 169.254 45.2685C168.952 45.4359 168.577 45.5163 168.135 45.5163C167.613 45.5163 167.184 45.3957 166.863 45.1613C166.541 44.9269 166.38 44.5719 166.394 44.0964V44.1031ZM167.01 41.4643C167.01 42.0403 167.124 42.4622 167.352 42.7301C167.579 42.998 167.867 43.1253 168.216 43.1253C168.564 43.1253 168.845 42.9913 169.079 42.7301C169.314 42.4689 169.428 42.0537 169.428 41.4911C169.428 40.9285 169.307 40.5467 169.073 40.2721C168.838 39.9975 168.544 39.8636 168.209 39.8636C167.874 39.8636 167.599 39.9975 167.365 40.2654C167.131 40.5333 167.017 40.9352 167.017 41.4643H167.01Z" fill="white"/>
<path opacity="0.8" d="M171.25 38.5241V37.6668H171.993V38.5241H171.25ZM171.25 43.7348V39.3345H171.993V43.7348H171.25Z" fill="white"/>
<path opacity="0.8" d="M172.85 41.538C172.85 40.7209 173.078 40.1181 173.527 39.7296C173.902 39.4015 174.364 39.2407 174.906 39.2407C175.509 39.2407 176.005 39.4417 176.387 39.8368C176.768 40.232 176.963 40.7811 176.963 41.4777C176.963 42.0403 176.875 42.489 176.708 42.8105C176.541 43.132 176.293 43.3865 175.965 43.5673C175.643 43.7482 175.288 43.8352 174.9 43.8352C174.284 43.8352 173.788 43.641 173.406 43.2458C173.024 42.8507 172.837 42.2814 172.837 41.538H172.85ZM173.614 41.538C173.614 42.1006 173.734 42.5225 173.982 42.8038C174.23 43.0851 174.538 43.2257 174.906 43.2257C175.275 43.2257 175.583 43.0851 175.831 42.8038C176.078 42.5225 176.199 42.0939 176.199 41.5179C176.199 40.9754 176.078 40.5601 175.831 40.2788C175.583 39.9976 175.275 39.8569 174.906 39.8569C174.538 39.8569 174.223 39.9975 173.982 40.2721C173.734 40.5534 173.614 40.9687 173.614 41.538Z" fill="white"/>
<path opacity="0.8" d="M177.84 43.7348V39.3345H178.51V39.9574C178.831 39.4752 179.3 39.2341 179.91 39.2341C180.178 39.2341 180.419 39.2809 180.64 39.3747C180.861 39.4685 181.028 39.5957 181.135 39.7498C181.249 39.9038 181.323 40.0847 181.37 40.299C181.397 40.4396 181.41 40.6807 181.41 41.0223V43.7281H180.667V41.0558C180.667 40.7544 180.64 40.5267 180.58 40.3726C180.519 40.2253 180.419 40.1047 180.271 40.011C180.124 39.9239 179.95 39.877 179.749 39.877C179.434 39.877 179.16 39.9775 178.925 40.1784C178.697 40.3793 178.577 40.7611 178.577 41.3237V43.7281H177.833L177.84 43.7348Z" fill="white"/>
<path opacity="0.8" d="M185.428 43.1923C185.154 43.4267 184.886 43.5941 184.631 43.6879C184.377 43.7816 184.102 43.8352 183.807 43.8352C183.325 43.8352 182.95 43.7147 182.696 43.4803C182.434 43.2458 182.307 42.9445 182.307 42.5761C182.307 42.3618 182.354 42.1675 182.454 41.9867C182.555 41.8059 182.682 41.6652 182.836 41.5581C182.99 41.4509 183.171 41.3705 183.372 41.317C183.519 41.2768 183.74 41.2433 184.035 41.2031C184.638 41.1294 185.08 41.0424 185.361 40.9486C185.361 40.8481 185.361 40.7812 185.361 40.7544C185.361 40.453 185.288 40.2387 185.147 40.1114C184.959 39.944 184.671 39.8569 184.296 39.8569C183.948 39.8569 183.687 39.9172 183.519 40.0444C183.352 40.165 183.231 40.386 183.151 40.6941L182.421 40.5936C182.488 40.2788 182.595 40.031 182.749 39.8368C182.903 39.6426 183.118 39.4952 183.406 39.3948C183.694 39.2943 184.022 39.2407 184.403 39.2407C184.785 39.2407 185.087 39.2876 185.321 39.3747C185.555 39.4617 185.73 39.5756 185.837 39.7096C185.944 39.8435 186.024 40.011 186.071 40.2186C186.098 40.3458 186.111 40.5735 186.111 40.9084V41.8996C186.111 42.5895 186.125 43.0315 186.158 43.2123C186.192 43.3932 186.252 43.574 186.346 43.7415H185.569C185.488 43.5874 185.442 43.4066 185.421 43.199L185.428 43.1923ZM185.368 41.5246C185.1 41.6384 184.691 41.7322 184.149 41.8059C183.841 41.8528 183.627 41.8996 183.499 41.9532C183.372 42.0068 183.272 42.0872 183.205 42.1943C183.138 42.3015 183.104 42.4153 183.104 42.5493C183.104 42.7502 183.178 42.911 183.332 43.0449C183.479 43.1789 183.7 43.2458 183.995 43.2458C184.29 43.2458 184.537 43.1856 184.758 43.0583C184.979 42.9311 185.147 42.7636 185.254 42.5426C185.334 42.3752 185.375 42.1274 185.375 41.7992V41.5246H185.368Z" fill="white"/>
<path opacity="0.8" d="M187.257 43.7348V37.6668H188V43.7348H187.257Z" fill="white"/>
<path opacity="0.8" d="M78.9712 13.9308H79.6611V16.9514C79.6611 17.4805 79.6008 17.8958 79.487 18.2039C79.3597 18.5119 79.1454 18.7598 78.8373 18.954C78.5292 19.1482 78.1206 19.2487 77.6183 19.2487C77.116 19.2487 76.7276 19.1683 76.4195 18.9942C76.1047 18.8267 75.8837 18.5789 75.7497 18.2641C75.6158 17.9427 75.5488 17.5073 75.5488 16.9514V13.9308H76.2387V16.9447C76.2387 17.4002 76.2788 17.7283 76.3659 17.9494C76.4463 18.1637 76.5936 18.3311 76.8013 18.445C77.0089 18.5655 77.2567 18.6191 77.5581 18.6191C78.0671 18.6191 78.4288 18.5053 78.6498 18.2775C78.8641 18.0431 78.9712 17.6011 78.9712 16.9447V13.9308Z" fill="white"/>
<path opacity="0.8" d="M80.8065 19.1482V13.9241H81.5164L84.249 18.023V13.9241H84.9188V19.1482H84.2089L81.4629 15.0426V19.1482H80.7998H80.8065Z" fill="white"/>
<path opacity="0.8" d="M86.2046 19.1482V13.9241H86.8945V19.1482H86.2046Z" fill="white"/>
<path opacity="0.8" d="M87.5308 19.1482L89.54 13.9241H90.2834L92.4199 19.1482H91.6363L91.0201 17.5676H88.8367L88.2675 19.1482H87.5308ZM88.7899 13.6093C88.7899 13.3615 88.8569 13.1606 88.9908 13.0132C89.1315 12.8659 89.3056 12.7922 89.5132 12.7922C89.6605 12.7922 89.8615 12.8592 90.116 12.9864C90.2566 13.0534 90.3638 13.0936 90.4442 13.0936C90.5245 13.0936 90.5848 13.0735 90.625 13.0333C90.6585 12.9865 90.692 12.9061 90.7121 12.7855H91.1742C91.1675 13.0534 91.0938 13.261 90.9665 13.395C90.8326 13.5289 90.6786 13.5959 90.4776 13.5959C90.3236 13.5959 90.1294 13.5289 89.8816 13.395C89.7208 13.3079 89.6003 13.2677 89.5333 13.2677C89.4462 13.2677 89.3859 13.2945 89.3324 13.3481C89.2855 13.4084 89.2587 13.4888 89.2587 13.6026H88.7899V13.6093ZM89.0444 17.005H90.8125L90.27 15.5583C90.1026 15.1163 89.982 14.7613 89.9017 14.4733C89.8347 14.8082 89.7409 15.1431 89.6204 15.4712L89.0511 17.005H89.0444Z" fill="white"/>
<path opacity="0.8" d="M92.7679 16.6098C92.7679 15.7458 93.0023 15.0627 93.4645 14.5738C93.9333 14.0848 94.5294 13.837 95.2728 13.837C95.755 13.837 96.1904 13.9509 96.5721 14.1853C96.9606 14.413 97.2619 14.7345 97.4562 15.1498C97.6638 15.565 97.7575 16.0338 97.7575 16.5562C97.7575 17.0786 97.6504 17.5542 97.4361 17.9761C97.2285 18.3913 96.927 18.7128 96.5319 18.9271C96.1434 19.1415 95.7148 19.2486 95.2661 19.2486C94.7705 19.2486 94.3284 19.1281 93.9467 18.8937C93.5582 18.6525 93.2635 18.3311 93.0626 17.9158C92.8684 17.5073 92.7612 17.0719 92.7612 16.6165L92.7679 16.6098ZM93.4845 16.6165C93.4845 17.2461 93.6587 17.7417 93.9868 18.1101C94.3284 18.4717 94.7571 18.6525 95.2594 18.6525C95.7617 18.6525 96.2171 18.4717 96.5453 18.1101C96.8802 17.7417 97.0476 17.226 97.0476 16.5495C97.0476 16.1276 96.9739 15.7525 96.84 15.4377C96.6993 15.1163 96.4783 14.8751 96.2037 14.701C95.9358 14.5269 95.6211 14.4398 95.2728 14.4398C94.7906 14.4398 94.3686 14.6072 94.0137 14.9421C93.6587 15.2837 93.4845 15.8396 93.4845 16.6232V16.6165Z" fill="white"/>
<path opacity="0.8" d="M100.698 19.1482V13.9241H104.475V14.5403H101.394V16.141H104.288V16.7572H101.394V18.5387H104.596V19.1549H100.704L100.698 19.1482Z" fill="white"/>
<path opacity="0.8" d="M108.976 13.9308H109.666V16.9514C109.666 17.4805 109.606 17.8958 109.485 18.2039C109.371 18.5119 109.15 18.7598 108.842 18.954C108.534 19.1482 108.126 19.2487 107.623 19.2487C107.121 19.2487 106.726 19.1683 106.425 18.9942C106.11 18.8267 105.889 18.5789 105.755 18.2641C105.621 17.9427 105.561 17.5073 105.561 16.9514V13.9308H106.244V16.9447C106.244 17.4002 106.291 17.7283 106.371 17.9494C106.458 18.1637 106.599 18.3311 106.806 18.445C107.014 18.5655 107.262 18.6191 107.556 18.6191C108.065 18.6191 108.427 18.5053 108.648 18.2775C108.856 18.0431 108.97 17.6011 108.97 16.9447V13.9308H108.976Z" fill="white"/>
<path opacity="0.8" d="M110.825 19.1482V13.9241H113.142C113.611 13.9241 113.959 13.971 114.2 14.0648C114.448 14.1585 114.642 14.326 114.79 14.5604C114.93 14.8015 115.004 15.0627 115.004 15.3507C115.004 15.7191 114.883 16.0338 114.649 16.2884C114.401 16.5429 114.04 16.7036 113.537 16.7706C113.725 16.8576 113.859 16.9447 113.952 17.0318C114.16 17.2193 114.348 17.447 114.528 17.7216L115.433 19.1415H114.562L113.872 18.0565C113.671 17.7417 113.504 17.5006 113.376 17.3332C113.243 17.1657 113.129 17.0519 113.028 16.9849C112.921 16.9179 112.821 16.871 112.713 16.8442C112.633 16.8242 112.512 16.8175 112.332 16.8175H111.528V19.1348H110.838L110.825 19.1482ZM111.515 16.2281H113.001C113.316 16.2281 113.564 16.1946 113.738 16.1276C113.926 16.0606 114.053 15.9602 114.147 15.8128C114.24 15.6722 114.287 15.5114 114.287 15.344C114.287 15.0962 114.194 14.8953 114.013 14.7345C113.832 14.5738 113.551 14.4934 113.162 14.4934H111.508V16.2214L111.515 16.2281Z" fill="white"/>
<path opacity="0.8" d="M115.875 16.6098C115.875 15.7458 116.109 15.0627 116.578 14.5738C117.04 14.0848 117.636 13.837 118.379 13.837C118.862 13.837 119.297 13.9509 119.679 14.1853C120.067 14.413 120.369 14.7345 120.569 15.1498C120.77 15.565 120.871 16.0338 120.871 16.5562C120.871 17.0786 120.764 17.5542 120.556 17.9761C120.335 18.3913 120.034 18.7128 119.645 18.9271C119.25 19.1415 118.828 19.2486 118.379 19.2486C117.884 19.2486 117.442 19.1281 117.053 18.8937C116.665 18.6525 116.37 18.3311 116.176 17.9158C115.982 17.5073 115.875 17.0719 115.875 16.6165V16.6098ZM116.584 16.6165C116.584 17.2461 116.759 17.7417 117.093 18.1101C117.435 18.4717 117.857 18.6525 118.366 18.6525C118.875 18.6525 119.324 18.4717 119.659 18.1101C120 17.7417 120.161 17.226 120.161 16.5495C120.161 16.1276 120.094 15.7525 119.933 15.4377C119.799 15.1163 119.585 14.8751 119.31 14.701C119.036 14.5269 118.734 14.4398 118.379 14.4398C117.89 14.4398 117.475 14.6072 117.12 14.9421C116.765 15.2837 116.591 15.8396 116.591 16.6232L116.584 16.6165Z" fill="white"/>
<path opacity="0.8" d="M121.769 19.1482V13.9241H123.744C124.086 13.9241 124.347 13.9375 124.535 13.971C124.796 14.0179 125.003 14.0916 125.178 14.2188C125.352 14.3394 125.492 14.5068 125.6 14.7211C125.7 14.9355 125.754 15.1766 125.754 15.4311C125.754 15.8731 125.613 16.2549 125.325 16.5563C125.044 16.8643 124.535 17.0184 123.805 17.0184H122.458V19.1415H121.769V19.1482ZM122.458 16.4089H123.811C124.253 16.4089 124.575 16.3285 124.769 16.1611C124.95 15.9937 125.044 15.7592 125.044 15.4579C125.044 15.2435 124.99 15.0493 124.876 14.902C124.769 14.7412 124.622 14.6408 124.441 14.5872C124.32 14.5604 124.113 14.5403 123.798 14.5403H122.465V16.4089H122.458Z" fill="white"/>
<path opacity="0.8" d="M126.651 19.1482V13.9241H130.428V14.5403H127.334V16.141H130.227V16.7572H127.334V18.5387H130.535V19.1549H126.644L126.651 19.1482Z" fill="white"/>
<path opacity="0.8" d="M131.62 19.1482V13.9241H132.303V19.1482H131.62Z" fill="white"/>
<path opacity="0.8" d="M132.953 19.1482L134.962 13.9241H135.706L137.849 19.1482H137.065L136.449 17.5676H134.266L133.703 19.1482H132.96H132.953ZM134.467 17.005H136.242L135.692 15.5583C135.525 15.1163 135.404 14.7613 135.324 14.4733C135.264 14.8082 135.163 15.1431 135.043 15.4713L134.467 17.005Z" fill="white"/>
<path d="M0.0341797 0V46.9697H69.186V0H0.0341797ZM67.8532 45.6168H1.36027V1.29262H67.8532V45.6168Z" fill="white"/>
<path d="M33.1935 10.9437L34.6 9.919L35.9998 10.9437L35.4639 9.28944L36.8905 8.26471H35.1358L34.6 6.59033L34.0575 8.26471H32.3027L33.7293 9.28944L33.1935 10.9437Z" fill="white"/>
<path d="M25.9337 12.8927L27.3402 11.868L28.74 12.8927L28.2042 11.2384L29.6308 10.2137H27.876L27.3335 8.53265L26.7977 10.2137H25.043L26.4695 11.2384L25.9337 12.8927Z" fill="white"/>
<path d="M22.022 13.8571L21.4862 15.5382H19.7314L21.158 16.5629L20.6222 18.2172L22.022 17.1925L23.4285 18.2172L22.8927 16.5629L24.3193 15.5382H22.5645L22.022 13.8571Z" fill="white"/>
<path d="M20.0733 24.4459L21.4797 25.4706L20.9439 23.8163L22.3705 22.7916H20.6157L20.0733 21.1105L19.5375 22.7916H17.7827L19.2093 23.8163L18.6735 25.4706L20.0733 24.4459Z" fill="white"/>
<path d="M22.5645 30.0652L22.022 28.3841L21.4862 30.0652H19.7314L21.158 31.0899L20.6222 32.7442L22.022 31.7195L23.4285 32.7442L22.8927 31.0899L24.3193 30.0652H22.5645Z" fill="white"/>
<path d="M27.8825 35.3829L27.3467 33.7086L26.8109 35.3896L25.0562 35.3829L26.476 36.4077L25.9469 38.0686L27.3467 37.0439L28.7532 38.0686L28.2174 36.4077L29.6439 35.3829H27.8825Z" fill="white"/>
<path d="M35.1358 37.3118L34.6 35.6375L34.0642 37.3185L32.3027 37.3118L33.7293 38.3365L33.1935 39.9908L34.6 38.9728L35.9998 39.9908L35.4706 38.3365L36.8905 37.3118H35.1358Z" fill="white"/>
<path d="M42.3892 35.3829L41.8534 33.7086L41.3109 35.3896L39.5562 35.3829L40.9827 36.4077L40.4469 38.0686L41.8534 37.0439L43.2532 38.0686L42.7174 36.4077L44.1439 35.3829H42.3892Z" fill="white"/>
<path d="M47.7139 30.0652L47.1714 28.3841L46.6356 30.0652H44.8809L46.3074 31.0899L45.7716 32.7442L47.1714 31.7195L48.5779 32.7442L48.0421 31.0899L49.4687 30.0652H47.7139Z" fill="white"/>
<path d="M51.3974 22.7715H49.6359L49.1001 21.0905L48.5643 22.7715H46.8096L48.2294 23.7962L47.7004 25.4505L49.1001 24.4258L50.5066 25.4505L49.9708 23.7962L51.3974 22.7715Z" fill="white"/>
<path d="M45.7716 18.1971L47.1714 17.1724L48.5779 18.1971L48.0421 16.5428L49.4687 15.5181H47.7139L47.1714 13.837L46.6356 15.5181H44.8809L46.3074 16.5428L45.7716 18.1971Z" fill="white"/>
<path d="M41.8734 8.53937L41.3376 10.2204L39.5762 10.2137L41.0027 11.2385L40.467 12.8927L41.8734 11.868L43.2732 12.8927L42.7441 11.2385L44.164 10.2137H42.4092L41.8734 8.53937Z" fill="white"/>
</svg>
