<svg width="220" height="60" viewBox="0 0 220 60" fill="none" xmlns="http://www.w3.org/2000/svg">
<g clip-path="url(#clip0_26_945)">
<path d="M151.361 32.9172C151.361 34.1657 150.58 34.9885 149.11 34.9885C147.641 34.9885 146.86 34.1657 146.86 32.9172V29.3959H148.077V32.8424C148.077 33.4983 148.421 33.9471 149.11 33.9471C149.799 33.9471 150.149 33.4983 150.149 32.8424V29.3959H151.361V32.9172Z" fill="white"/>
<path d="M156.367 32.71V34.8907H155.196V32.7675C155.196 32.3475 154.949 32.0598 154.536 32.0598C154.168 32.0598 153.921 32.2785 153.772 32.5086V34.8964H152.601V31.1047H153.651L153.709 31.5247C153.91 31.2485 154.3 31.0299 154.857 31.0299C155.833 31.0299 156.367 31.6858 156.367 32.71Z" fill="white"/>
<path d="M158.819 29.908C158.819 30.282 158.531 30.5524 158.135 30.5524C157.739 30.5524 157.452 30.282 157.452 29.908C157.452 29.534 157.739 29.2635 158.135 29.2635C158.531 29.2635 158.819 29.534 158.819 29.908ZM158.715 34.8965H157.544V31.1047H158.715V34.8965Z" fill="white"/>
<path d="M161.758 34.9655H161.729L159.507 31.1047H160.822L161.741 32.9517L162.659 31.1047H163.962L161.758 34.9655Z" fill="white"/>
<path d="M168.09 32.9516V33.3026H165.363C165.386 33.7859 165.708 34.0679 166.287 34.0679C166.684 34.0679 166.994 33.901 167.172 33.6766L167.975 34.2923C167.556 34.7468 167.022 34.9712 166.265 34.9712C165.001 34.9712 164.186 34.1484 164.186 33.0149C164.186 31.8814 165.013 31.0356 166.213 31.0356C167.476 31.0356 168.09 31.916 168.09 32.9574M165.363 32.6122H166.936C166.919 32.1864 166.649 31.8642 166.173 31.8642C165.696 31.8642 165.386 32.1806 165.363 32.6122Z" fill="white"/>
<path d="M171.339 32.1174H171.242C170.765 32.1174 170.461 32.3418 170.231 32.618V34.8907H169.06V31.099H170.099L170.168 31.5995C170.369 31.2946 170.765 31.0242 171.328 31.0242V32.1174H171.339Z" fill="white"/>
<path d="M175.106 31.4384L174.669 32.2152C174.44 32.0426 174.112 31.893 173.705 31.893C173.36 31.893 173.182 31.9908 173.182 32.1922C173.182 32.3936 173.332 32.4626 173.906 32.5892C174.755 32.7848 175.169 33.1415 175.169 33.7112C175.169 34.4649 174.503 34.9655 173.412 34.9655C172.798 34.9655 172.212 34.7871 171.868 34.5109L172.315 33.7284C172.585 33.9471 172.97 34.1082 173.423 34.1082C173.779 34.1082 173.998 34.0046 173.998 33.786C173.998 33.5846 173.854 33.481 173.314 33.3602C172.43 33.1588 172.017 32.8596 172.017 32.267C172.017 31.5132 172.643 31.0242 173.711 31.0242C174.267 31.0242 174.801 31.1795 175.111 31.4327" fill="white"/>
<path d="M177.413 29.908C177.413 30.282 177.126 30.5524 176.73 30.5524C176.334 30.5524 176.047 30.282 176.047 29.908C176.047 29.534 176.334 29.2635 176.73 29.2635C177.126 29.2635 177.413 29.534 177.413 29.908ZM177.31 34.8965H176.139V31.1047H177.31V34.8965Z" fill="white"/>
<path d="M180.02 31.1047H181.174V32.031H180.02V33.4637C180.02 33.7917 180.244 33.9815 180.577 33.9815C180.818 33.9815 180.984 33.9297 181.093 33.8722L181.386 34.741C181.174 34.8618 180.875 34.9712 180.462 34.9712C179.474 34.9712 178.849 34.4418 178.849 33.481V32.031H178.125V31.1047H178.849V29.8503H180.02V31.1047Z" fill="white"/>
<path d="M183.017 36.6111H181.679L183.286 33.9413L181.696 31.1047H182.999L183.918 32.9574L184.836 31.1047H186.151L183.017 36.6111Z" fill="white"/>
<path d="M192.885 33.0092C192.885 34.1427 191.978 34.9655 190.755 34.9655C189.533 34.9655 188.643 34.1427 188.643 33.0092C188.643 31.8757 189.533 31.0299 190.755 31.0299C191.978 31.0299 192.885 31.8757 192.885 33.0092ZM189.814 33.0092C189.814 33.5846 190.21 34.0103 190.75 34.0103C191.289 34.0103 191.697 33.5846 191.697 33.0092C191.697 32.4338 191.301 31.985 190.75 31.985C190.199 31.985 189.814 32.4281 189.814 33.0092Z" fill="white"/>
<path d="M196.663 29.4534L196.25 30.328C196.152 30.2359 195.986 30.1726 195.796 30.1726C195.48 30.1726 195.297 30.3798 195.297 30.7192V31.1105H196.204V32.0368H195.297V34.9022H194.125V32.0368H193.425V31.1105H194.125V30.7825C194.125 29.8734 194.74 29.2233 195.733 29.2233C196.123 29.2233 196.439 29.3153 196.663 29.4649" fill="white"/>
<path d="M203.552 31.2141C203.552 32.3821 202.622 33.0322 201.503 33.0322H200.383V34.8907H199.166V29.3959H201.503C202.616 29.3959 203.552 30.046 203.552 31.2141ZM200.377 30.3855V32.0426H201.382C201.945 32.0426 202.329 31.7664 202.329 31.2141C202.329 30.6617 201.945 30.3855 201.382 30.3855H200.377Z" fill="white"/>
<path d="M208.277 33.0092C208.277 34.1427 207.37 34.9655 206.147 34.9655C204.924 34.9655 204.029 34.1427 204.029 33.0092C204.029 31.8757 204.918 31.0299 206.147 31.0299C207.376 31.0299 208.277 31.8757 208.277 33.0092ZM205.205 33.0092C205.205 33.5846 205.602 34.0103 206.141 34.0103C206.681 34.0103 207.088 33.5846 207.088 33.0092C207.088 32.4338 206.692 31.985 206.141 31.985C205.59 31.985 205.205 32.4281 205.205 33.0092Z" fill="white"/>
<path d="M211.498 32.1174H211.4C210.924 32.1174 210.619 32.3418 210.39 32.618V34.8907H209.219V31.099H210.258L210.327 31.5995C210.527 31.2946 210.924 31.0242 211.486 31.0242V32.1174H211.498Z" fill="white"/>
<path d="M213.937 31.1047H215.091V32.031H213.937V33.4637C213.937 33.7917 214.161 33.9815 214.494 33.9815C214.735 33.9815 214.902 33.9297 215.011 33.8722L215.304 34.741C215.091 34.8618 214.793 34.9712 214.38 34.9712C213.392 34.9712 212.766 34.4418 212.766 33.481V32.031H212.043V31.1047H212.766V29.8503H213.937V31.1047Z" fill="white"/>
<path d="M220 33.0092C220 34.1427 219.093 34.9655 217.87 34.9655C216.647 34.9655 215.752 34.1427 215.752 33.0092C215.752 31.8757 216.642 31.0299 217.87 31.0299C219.099 31.0299 220 31.8757 220 33.0092ZM216.929 33.0092C216.929 33.5846 217.325 34.0103 217.864 34.0103C218.404 34.0103 218.812 33.5846 218.812 33.0092C218.812 32.4338 218.416 31.985 217.864 31.985C217.313 31.985 216.929 32.4281 216.929 33.0092Z" fill="white"/>
<path d="M140.229 36.5593L143.656 28.1013H143.036L139.603 36.5593H140.229Z" fill="white"/>
<path d="M38.344 17.5374L49.0337 57.0023L0.970218 38.2451L38.344 17.5374ZM38.6023 16.9275L0.0114746 38.3084L49.6307 57.6697L38.5966 16.9218L38.6023 16.9275Z" fill="white"/>
<path d="M51.996 5.78251C51.996 9.4649 49.1485 11.565 45.9967 11.565H42.9654V16.9333H38.6023V0H46.0024C49.1485 0 52.0017 2.09436 52.0017 5.78251M42.9712 3.75719V7.80782H45.5661C46.7373 7.80782 47.564 7.14039 47.564 5.78251C47.564 4.42463 46.7373 3.75719 45.5661 3.75719H42.9712Z" fill="white"/>
<path d="M65.8318 11.076C65.8318 14.5973 63.145 17.1577 59.511 17.1577C55.8769 17.1577 53.2131 14.603 53.2131 11.076C53.2131 7.54893 55.8769 4.94824 59.511 4.94824C63.145 4.94824 65.8318 7.54893 65.8318 11.076ZM57.4902 11.076C57.4902 12.4569 58.3398 13.4925 59.511 13.4925C60.6821 13.4925 61.5548 12.4569 61.5548 11.076C61.5548 9.69508 60.6821 8.61337 59.511 8.61337C58.3398 8.61337 57.4902 9.67206 57.4902 11.076Z" fill="white"/>
<path d="M75.6431 9.1427H75.2986C73.9897 9.1427 73.14 9.71808 72.5659 10.3855V16.9275H68.3406V5.18413H72.0837L72.3363 6.6801C72.9104 5.71347 74.0816 4.95398 75.6431 4.95398V9.1427Z" fill="white"/>
<path d="M83.893 5.1841H86.9931V8.7284H83.893V12.1576C83.893 12.8941 84.3982 13.3774 85.202 13.3774C85.822 13.3774 86.2583 13.2163 86.5798 13.0552L87.5902 16.3694C86.9242 16.7836 86.0057 17.1519 84.7886 17.1519C81.6196 17.1519 79.6619 15.3567 79.6619 12.1979V8.72265H77.687V5.17834H79.6619V3.98732L83.8873 1.37512V5.17834L83.893 5.1841Z" fill="white"/>
<path d="M101.403 11.076C101.403 14.5973 98.7161 17.1577 95.082 17.1577C91.448 17.1577 88.7842 14.603 88.7842 11.076C88.7842 7.54893 91.448 4.94824 95.082 4.94824C98.7161 4.94824 101.403 7.54893 101.403 11.076ZM93.0612 11.076C93.0612 12.4569 93.9109 13.4925 95.082 13.4925C96.2532 13.4925 97.1258 12.4569 97.1258 11.076C97.1258 9.69508 96.2532 8.61337 95.082 8.61337C93.9109 8.61337 93.0612 9.67206 93.0612 11.076Z" fill="white"/>
<path d="M12.3603 26.0644C12.3603 27.5604 11.6944 28.573 11.0055 29.1484C12.567 29.8388 13.6922 31.0126 13.6922 33.2451C13.6922 36.5132 11.0743 38.3141 8.03737 38.3141H0V21.3866H6.94084C10.2017 21.3866 12.3661 23.1127 12.3661 26.0586M4.36888 25.3682V28.0379H6.34378C7.26234 28.0379 7.92829 27.5546 7.92829 26.7031C7.92829 25.8515 7.26234 25.3682 6.34378 25.3682H4.36888ZM4.36888 31.3348V34.3268H7.49198C8.52535 34.3268 9.2602 33.7974 9.2602 32.8308C9.2602 31.8642 8.52535 31.3348 7.49198 31.3348H4.36888Z" fill="white"/>
<path d="M27.2983 38.3142H23.5322L23.3255 37.1404C22.7514 37.969 21.741 38.5443 20.1795 38.5443C17.3549 38.5443 15.9312 36.496 15.9312 33.2221V26.5651H20.1565V32.992C20.1565 33.9356 20.5699 34.58 21.4425 34.58C22.3151 34.58 22.7974 34.0507 23.0729 33.5674V26.5651H27.2983V38.3084V38.3142Z" fill="white"/>
<path d="M39.6644 27.5834L38.1718 30.4833C37.5518 29.9539 36.6102 29.4936 35.485 29.4936C34.7272 29.4936 34.4057 29.7238 34.4057 30.115C34.4057 30.4603 34.6583 30.6674 36.2658 31.0586C38.5392 31.611 39.7104 32.7157 39.7104 34.4649C39.7104 36.9044 37.6895 38.5385 34.2851 38.5385C32.5169 38.5385 30.7028 38.0322 29.7383 37.1576L31.2769 34.2577C31.9887 34.8791 33.0451 35.3855 34.3081 35.3855C35.0889 35.3855 35.4793 35.2013 35.4793 34.7641C35.4793 34.3728 35.2726 34.0966 33.8718 33.7514C31.3917 33.13 30.1689 32.2324 30.1689 30.4142C30.1689 27.9746 32.0978 26.3406 35.4793 26.3406C37.1327 26.3406 38.7631 26.7779 39.6587 27.5834" fill="white"/>
<path d="M46.766 22.9057C46.766 24.2866 45.7785 25.2762 44.4007 25.2762C43.0228 25.2762 42.0354 24.2866 42.0354 22.9057C42.0354 21.5248 43.0228 20.5352 44.4007 20.5352C45.7785 20.5352 46.766 21.5248 46.766 22.9057ZM46.5134 38.3142H42.288V26.5708H46.5134V38.3142Z" fill="white"/>
<path d="M61.239 31.657V38.3141H57.0136V31.8872C57.0136 30.9436 56.5314 30.2991 55.6817 30.2991C54.832 30.2991 54.3039 30.8285 54.0742 31.3118V38.3141H49.8489V26.5707H53.615L53.8216 27.7445C54.3498 26.916 55.4061 26.3406 56.8529 26.3406C59.7463 26.3406 61.2447 28.3889 61.2447 31.6628" fill="white"/>
<path d="M75.2124 32.2555V33.4522H67.7894C67.8353 34.4879 68.5242 35.1093 69.8102 35.1093C70.6828 35.1093 71.4865 34.7181 71.9458 34.1427L74.8163 36.4442C73.5303 37.8711 71.9458 38.5385 69.7126 38.5385C65.9924 38.5385 63.5066 35.9839 63.5066 32.4568C63.5066 28.9298 65.9867 26.3291 69.6437 26.3291C73.3007 26.3291 75.2067 29.0449 75.2067 32.2497M67.7836 31.0759H71.0445C71.0215 30.1553 70.4704 29.3268 69.46 29.3268C68.4496 29.3268 67.8066 30.1323 67.7836 31.0759Z" fill="white"/>
<path d="M86.9069 27.5834L85.4142 30.4833C84.7942 29.9539 83.8527 29.4936 82.7274 29.4936C81.9696 29.4936 81.6481 29.7238 81.6481 30.115C81.6481 30.4603 81.9007 30.6674 83.5082 31.0586C85.7816 31.611 86.9528 32.7157 86.9528 34.4649C86.9528 36.9044 84.932 38.5385 81.5276 38.5385C79.7593 38.5385 77.9452 38.0322 76.9807 37.1576L78.5193 34.2577C79.2312 34.8791 80.2875 35.3855 81.5505 35.3855C82.3313 35.3855 82.7217 35.2013 82.7217 34.7641C82.7217 34.3728 82.515 34.0966 81.1142 33.7514C78.6341 33.13 77.417 32.2324 77.417 30.4142C77.417 27.9746 79.346 26.3406 82.7274 26.3406C84.3808 26.3406 86.0113 26.7779 86.9069 27.5834Z" fill="white"/>
<path d="M98.5612 27.5834L97.0685 30.4833C96.4485 29.9539 95.507 29.4936 94.3817 29.4936C93.6239 29.4936 93.3024 29.7238 93.3024 30.115C93.3024 30.4603 93.555 30.6674 95.1625 31.0586C97.4359 31.611 98.6071 32.7157 98.6071 34.4649C98.6071 36.9044 96.5863 38.5385 93.1819 38.5385C91.4136 38.5385 89.5995 38.0322 88.635 37.1576L90.1736 34.2577C90.8855 34.8791 91.9418 35.3855 93.2048 35.3855C93.9856 35.3855 94.376 35.2013 94.376 34.7641C94.376 34.3728 94.1693 34.0966 92.7685 33.7514C90.2884 33.13 89.0656 32.2324 89.0656 30.4142C89.0656 27.9746 90.9946 26.3406 94.376 26.3406C96.0294 26.3406 97.6598 26.7779 98.5554 27.5834" fill="white"/>
<path d="M62.6628 44.2463L60.4123 47.8596C59.4478 47.0771 58.2307 46.4557 56.4395 46.4557C55.1995 46.4557 54.6024 46.87 54.6024 47.6755C54.6024 48.2509 55.0158 48.6651 57.2892 49.0564C61.859 50 63.1278 51.7492 63.1278 54.3326C63.1278 57.7388 60.6477 60 56.4625 60C53.8216 60 51.3645 59.1945 49.6365 57.6755L51.9788 54.0391C53.0581 55.2359 54.9411 56.0184 56.6003 56.0184C58.0929 56.0184 58.7589 55.5811 58.7589 54.7526C58.7589 54.1542 58.2766 53.7399 56.0032 53.3257C51.4564 52.359 50.2106 50.3567 50.2106 47.9114C50.2106 44.8274 52.6218 42.4741 56.4625 42.4741C58.9656 42.4741 61.239 43.1416 62.6685 44.2463" fill="white"/>
<path d="M75.8037 50.5121L72.8644 52.6755C72.474 51.824 71.8769 51.3637 70.9124 51.3637C69.6494 51.3637 68.9605 52.4914 68.9605 53.8263C68.9605 55.1612 69.6494 56.2889 70.9124 56.2889C71.854 56.2889 72.4969 55.8056 72.9103 54.954L75.8037 57.1404C74.7474 58.8896 73.117 59.9253 70.8837 59.9253C67.3473 59.9253 64.6777 57.3476 64.6777 53.8205C64.6777 50.2935 67.3415 47.7158 70.8837 47.7158C73.1112 47.7158 74.7417 48.7515 75.8037 50.5006" fill="white"/>
<path d="M82.0558 48.809C82.6299 48.1646 83.5944 47.7273 84.8344 47.7273C87.7279 47.7273 89.2263 49.7757 89.2263 53.0495V59.7066H85.0009V53.2797C85.0009 52.3361 84.5187 51.6917 83.669 51.6917C82.8194 51.6917 82.2912 52.221 82.0615 52.7043V59.7066H77.8362V42.2037H82.0615V48.8148L82.0558 48.809Z" fill="white"/>
<path d="M104.118 53.8493C104.118 57.3706 101.432 59.931 97.7976 59.931C94.1636 59.931 91.4998 57.3763 91.4998 53.8493C91.4998 50.3222 94.1636 47.7216 97.7976 47.7216C101.432 47.7216 104.118 50.3222 104.118 53.8493ZM95.7768 53.8493C95.7768 55.2302 96.6264 56.2659 97.7976 56.2659C98.9688 56.2659 99.8414 55.2302 99.8414 53.8493C99.8414 52.4684 98.9688 51.3867 97.7976 51.3867C96.6264 51.3867 95.7768 52.4454 95.7768 53.8493Z" fill="white"/>
<path d="M118.706 53.8493C118.706 57.3706 116.019 59.931 112.385 59.931C108.751 59.931 106.087 57.3763 106.087 53.8493C106.087 50.3222 108.751 47.7216 112.385 47.7216C116.019 47.7216 118.706 50.3222 118.706 53.8493ZM110.364 53.8493C110.364 55.2302 111.214 56.2659 112.385 56.2659C113.556 56.2659 114.429 55.2302 114.429 53.8493C114.429 52.4684 113.556 51.3867 112.385 51.3867C111.214 51.3867 110.364 52.4454 110.364 53.8493Z" fill="white"/>
<path d="M125.44 42.1979H121.215V59.7008H125.44V42.1979Z" fill="white"/>
</g>
<defs>
<clipPath id="clip0_26_945">
<rect width="220" height="60" fill="white"/>
</clipPath>
</defs>
</svg>
