<svg width="133" height="41" viewBox="0 0 133 41" fill="none" xmlns="http://www.w3.org/2000/svg">
<path d="M33.6337 36.9507L42.6887 29.2552C43.5929 28.5118 44.3564 27.822 44.9792 27.2125C45.6088 26.5963 46.1111 26.0136 46.4996 25.4644C46.8947 24.9152 47.1693 24.3727 47.3435 23.8503C47.5176 23.3212 47.6114 22.7586 47.6114 22.1559C47.6114 20.8566 47.2028 19.8519 46.3924 19.142C45.5753 18.4254 44.5707 18.0704 43.3651 18.0704C42.1596 18.0704 41.1014 18.3986 40.1905 19.0415C39.273 19.6979 38.3085 20.6824 37.2771 22.0152L34.0087 19.4568C34.6316 18.5861 35.2679 17.7958 35.9242 17.0993C36.5739 16.4094 37.2838 15.82 38.0473 15.3646C38.8108 14.8891 39.648 14.5341 40.5656 14.2796C41.4764 14.0251 42.528 13.9045 43.7067 13.9045C44.9792 13.9045 46.1513 14.0921 47.2229 14.4671C48.2878 14.8355 49.2054 15.3713 49.9689 16.0611C50.7324 16.751 51.3285 17.5882 51.7571 18.5459C52.1791 19.5104 52.3934 20.5887 52.3934 21.7607V21.8344C52.3934 22.8658 52.2527 23.8035 51.9781 24.6407C51.7036 25.4845 51.2816 26.2882 50.719 27.0651C50.1497 27.8354 49.4398 28.6257 48.5691 29.416C47.7051 30.1996 46.7005 31.0703 45.5418 32.028L40.1303 36.5354H52.6412V40.5874H33.627V36.9574L33.6337 36.9507Z" fill="white"/>
<path d="M68.5075 40.5807C66.4782 40.5807 64.623 40.2257 62.9486 39.5158C61.2675 38.7991 59.8275 37.828 58.622 36.6024C57.4231 35.3767 56.4788 33.9434 55.8023 32.2959C55.1259 30.6617 54.791 28.9069 54.791 27.0584V26.9847C54.791 25.1295 55.1326 23.3815 55.8023 21.7473C56.4788 20.0997 57.4298 18.6597 58.6622 17.4207C59.8878 16.1816 61.3412 15.2038 63.0223 14.4738C64.6966 13.7437 66.5518 13.3821 68.5812 13.3821C70.6105 13.3821 72.4658 13.7437 74.1401 14.4604C75.8212 15.1703 77.2612 16.1414 78.4667 17.3738C79.6723 18.5994 80.6032 20.0327 81.2864 21.6736C81.9628 23.3212 82.2977 25.0692 82.2977 26.9244V26.9981C82.2977 28.8533 81.9561 30.6014 81.2864 32.2423C80.6099 33.8832 79.6589 35.3231 78.4332 36.5622C77.2076 37.7945 75.7475 38.7857 74.0732 39.5091C72.3921 40.2324 70.5369 40.5941 68.5075 40.5941M68.5812 36.3612C69.8805 36.3612 71.0727 36.1134 72.1577 35.6245C73.2427 35.1356 74.1736 34.4658 74.9438 33.6287C75.7207 32.7848 76.3235 31.8136 76.7589 30.675C77.1942 29.5499 77.4152 28.351 77.4152 27.0718V26.9981C77.4152 25.7256 77.2009 24.5133 76.7589 23.3681C76.3235 22.2362 75.714 21.245 74.9237 20.4011C74.1334 19.5639 73.1958 18.8941 72.0974 18.3918C70.999 17.8895 69.8068 17.6417 68.5075 17.6417C67.2082 17.6417 66.0161 17.8895 64.9311 18.3717C63.8461 18.8606 62.9151 19.5237 62.1449 20.3676C61.3747 21.1981 60.7652 22.1893 60.3299 23.3078C59.8945 24.4397 59.6735 25.6452 59.6735 26.9244V26.9981C59.6735 28.2773 59.8945 29.4829 60.3299 30.6215C60.7652 31.7668 61.3814 32.758 62.165 33.5885C62.9486 34.4257 63.8929 35.0954 64.9913 35.5977C66.0897 36.1 67.2819 36.3612 68.5812 36.3612Z" fill="white"/>
<path d="M84.0995 36.9507L93.1612 29.2552C94.0587 28.5118 94.8155 27.822 95.4518 27.2125C96.0746 26.5963 96.5836 26.0136 96.9721 25.4644C97.3605 24.9152 97.6418 24.3727 97.8093 23.8503C97.9901 23.3212 98.0772 22.7586 98.0772 22.1559C98.0772 20.8566 97.6686 19.8519 96.8582 19.142C96.0411 18.4254 95.0298 18.0704 93.8377 18.0704C92.6455 18.0704 91.5739 18.3986 90.6563 19.0415C89.7455 19.6979 88.7676 20.6824 87.7429 22.0152L84.4678 19.4568C85.0974 18.5861 85.7337 17.7958 86.3833 17.0993C87.0397 16.4094 87.7429 15.82 88.5064 15.3646C89.2699 14.8891 90.1071 14.5341 91.0247 14.2796C91.9356 14.0251 92.9804 13.9045 94.1591 13.9045C95.4451 13.9045 96.6104 14.0921 97.6753 14.4671C98.7402 14.8355 99.6578 15.3713 100.421 16.0611C101.192 16.751 101.781 17.5882 102.21 18.5459C102.631 19.5104 102.852 20.5887 102.852 21.7607V21.8344C102.852 22.8658 102.712 23.8035 102.437 24.6407C102.163 25.4845 101.741 26.2882 101.178 27.0651C100.616 27.8354 99.8989 28.6257 99.0349 29.416C98.171 30.1996 97.1596 31.0703 96.0077 32.028L90.5961 36.5354H103.107V40.5874H84.0928V36.9574L84.0995 36.9507Z" fill="white"/>
<path d="M118.98 40.5807C116.951 40.5807 115.096 40.2257 113.415 39.5158C111.733 38.7991 110.293 37.828 109.095 36.6024C107.889 35.3767 106.951 33.9434 106.275 32.2959C105.599 30.6617 105.264 28.9069 105.264 27.0584V26.9847C105.264 25.1295 105.599 23.3815 106.275 21.7473C106.951 20.0997 107.902 18.6597 109.135 17.4207C110.36 16.1816 111.814 15.2038 113.495 14.4738C115.176 13.7437 117.024 13.3821 119.054 13.3821C121.083 13.3821 122.938 13.7437 124.613 14.4604C126.294 15.1703 127.727 16.1414 128.933 17.3738C130.132 18.5994 131.076 20.0327 131.752 21.6736C132.429 23.3212 132.764 25.0692 132.764 26.9244V26.9981C132.764 28.8533 132.422 30.6014 131.752 32.2423C131.076 33.8832 130.118 35.3231 128.899 36.5622C127.674 37.7945 126.213 38.7857 124.532 39.5091C122.858 40.2324 121.003 40.5941 118.973 40.5941M119.047 36.3612C120.346 36.3612 121.539 36.1134 122.617 35.6245C123.702 35.1356 124.633 34.4658 125.403 33.6287C126.18 32.7848 126.783 31.8136 127.218 30.675C127.653 29.5499 127.868 28.351 127.868 27.0718V26.9981C127.868 25.7256 127.653 24.5133 127.218 23.3681C126.776 22.2362 126.167 21.245 125.383 20.4011C124.593 19.5639 123.655 18.8941 122.557 18.3918C121.458 17.8895 120.259 17.6417 118.967 17.6417C117.674 17.6417 116.475 17.8895 115.39 18.3717C114.305 18.8606 113.374 19.5237 112.597 20.3676C111.827 21.1981 111.224 22.1893 110.789 23.3078C110.354 24.4397 110.133 25.6452 110.133 26.9244V26.9981C110.133 28.2773 110.354 29.4829 110.789 30.6215C111.224 31.7668 111.834 32.758 112.618 33.5885C113.401 34.4257 114.346 35.0954 115.444 35.5977C116.549 36.1 117.741 36.3612 119.04 36.3612" fill="white"/>
<path d="M36.4801 5.30494C36.3461 5.30494 36.1854 5.30494 36.0046 5.28485V6.87215C36.3328 6.88555 36.6743 6.94583 36.9556 6.99941V7.88347H33.627V6.99941C33.9149 6.94583 34.2498 6.88555 34.578 6.87215V1.52084C34.2498 1.49405 33.9082 1.44717 33.627 1.38689V0.49612H34.4843C34.8325 0.49612 35.7903 0.455936 36.5605 0.455936C38.3621 0.455936 39.36 1.29983 39.36 2.73979C39.36 4.17976 38.2683 5.29823 36.4734 5.29823L36.4801 5.30494ZM36.5002 1.62131C36.3261 1.62131 36.1787 1.62131 36.0113 1.62131V4.07929C36.1586 4.10608 36.2926 4.11278 36.4265 4.11278C37.2905 4.09939 37.9 3.61716 37.9 2.82016C37.9 2.07673 37.4847 1.60791 36.5069 1.60791L36.5002 1.62131ZM43.3585 8.00403C41.1081 8.00403 40.003 6.57077 40.003 4.28691C40.003 1.84902 41.6305 0.382263 43.6129 0.382263C45.5954 0.382263 46.9684 1.56102 46.9684 4.08599C46.9684 6.61095 45.3543 8.00403 43.3585 8.00403ZM43.479 1.66818C42.461 1.66818 41.5233 2.47859 41.5233 4.13287C41.5233 5.70009 42.1328 6.71811 43.4589 6.71811C44.4167 6.71811 45.4414 5.97469 45.4414 4.20655C45.4414 2.56566 44.7448 1.66818 43.479 1.66818ZM51.8375 7.88347L50.0359 4.8361H49.8416V6.87215C50.0493 6.88555 50.2904 6.92573 50.5114 6.98601V7.88347H47.4707V6.99941C47.7587 6.94583 48.0936 6.88555 48.4218 6.87215V1.52084C48.0936 1.49405 47.7587 1.44717 47.4707 1.38689V0.49612H48.3213C48.6093 0.49612 49.6273 0.455936 50.5382 0.455936C52.1657 0.455936 53.2172 1.01853 53.2172 2.53217C53.2172 3.56359 52.5206 4.3204 51.4758 4.53472C51.6098 4.70885 51.737 4.89639 51.8509 5.07052L52.9895 6.85206C53.1971 6.87885 53.4516 6.92573 53.7128 6.97261V7.87678H51.8375V7.88347ZM50.3841 1.62131C50.1899 1.62131 49.9823 1.6213 49.8416 1.64809V3.7846C49.9354 3.7846 50.1229 3.80469 50.3373 3.80469C51.2079 3.80469 51.7169 3.36936 51.7169 2.67951C51.7169 1.98967 51.2883 1.62131 50.3774 1.62131H50.3841ZM58.756 2.57905C58.7091 2.23747 58.6489 1.94948 58.6288 1.66818H57.4902V6.86546C57.8184 6.87885 58.16 6.93912 58.448 6.9927V7.87678H55.126V6.9927C55.414 6.93912 55.7488 6.87885 56.077 6.86546V1.66818H54.9518C54.9318 1.94278 54.8782 2.23747 54.8179 2.57905H53.7731V0.49612H59.8142V2.57905H58.7627H58.756ZM66.9873 1.52084V5.05043C66.9873 7.0061 65.9023 7.99733 63.9332 7.99733C61.6025 7.99733 61.0801 6.73151 61.0801 5.32503V1.52084C60.839 1.49405 60.5978 1.46057 60.3902 1.40029V0.502824H63.2836V1.40029C63.0357 1.46726 62.7544 1.49405 62.4932 1.52084V5.23796C62.4932 6.16891 62.7946 6.82527 64.0203 6.82527C65.112 6.82527 65.5808 6.36314 65.5808 5.10401V1.52084C65.3129 1.49405 65.0383 1.46726 64.7905 1.40029V0.502824H67.657V1.40029C67.4494 1.46057 67.2217 1.49405 66.9806 1.52084H66.9873ZM74.321 5.03034V7.53521C73.591 7.8299 72.6735 7.99064 71.7693 7.99064C69.4453 7.99064 68.0589 6.61095 68.0589 4.36059C68.0589 2.11022 69.6395 0.388957 72.1511 0.388957C72.8409 0.388957 73.5307 0.482725 74.2072 0.663557V2.63932H73.1088C73.0485 2.32454 73.015 2.04325 72.9815 1.75526C72.6868 1.67489 72.3721 1.6414 72.0774 1.6414C70.6441 1.6414 69.606 2.55225 69.606 4.21993C69.606 5.78715 70.4633 6.70472 71.9568 6.70472C72.3051 6.70472 72.6132 6.65784 72.8945 6.57077V5.03034C72.5663 5.01025 72.2314 4.95666 71.9568 4.88969V3.99892H74.9305V4.90978C74.7363 4.95666 74.522 4.99016 74.321 5.02364V5.03034ZM79.4513 7.88347V6.99941C79.6791 6.95253 79.9804 6.90564 80.2283 6.87885L79.9135 6.00817H77.2211L76.913 6.87885C77.1675 6.89894 77.4622 6.95253 77.6899 6.99941V7.88347H74.9104V6.99941C75.0913 6.94583 75.3056 6.90564 75.4864 6.88555L77.7368 0.502824H79.4781L81.7754 6.88555C81.9562 6.89895 82.1772 6.94583 82.3513 6.99941V7.88347H79.4446H79.4513ZM78.9088 3.08136C78.7682 2.67951 78.661 2.33124 78.574 1.92269H78.5606C78.4735 2.29106 78.3663 2.72639 78.2123 3.13494L77.576 4.89639H79.5652L78.9088 3.07467V3.08136ZM82.6996 7.88347V6.99941C82.9809 6.94583 83.3225 6.88555 83.6507 6.87215V1.52084C83.3225 1.49405 82.9809 1.44717 82.6996 1.38689V0.49612H86.0283V1.38689C85.747 1.44717 85.4054 1.49405 85.0706 1.52084V6.71141H86.4837C86.5038 6.44351 86.5574 6.12873 86.6177 5.80725H87.6625V7.88347H82.6996Z" fill="white"/>
<path d="M11.4982 0.697083C4.98817 3.26893 0.942871 10.0602 0.942871 20.515V36.3948C0.942871 36.3948 2.27568 26.1878 11.4982 23.2543V0.703776V0.697083Z" fill="white"/>
<path d="M14.6526 24.8215C10.8685 25.5716 5.32964 28.6056 3.70215 32.8719C11.8195 23.0132 28.3892 32.5437 29.1259 14.005C29.3536 8.1313 29.3804 0.911377 29.3804 0.911377C20.7272 1.3936 14.6526 3.70425 14.6526 3.70425V24.8282V24.8215Z" fill="white"/>
<path d="M13.5943 30.1728C13.5943 30.1728 4.78704 30.8827 4.03692 35.9126C3.44754 39.844 13.5943 39.9445 13.5943 39.9445V30.1728Z" fill="white"/>
</svg>
