<svg width="361" height="641" viewBox="0 0 361 641" fill="none" xmlns="http://www.w3.org/2000/svg">
<mask id="mask0_196_1703" style="mask-type:luminance" maskUnits="userSpaceOnUse" x="0" y="0" width="361" height="641">
<path d="M360.78 0.240234H0.780273V640.24H360.78V0.240234Z" fill="white"/>
</mask>
<g mask="url(#mask0_196_1703)">
<path d="M104.5 92.84L108.3 96.6401L63.5905 141.35L59.7905 137.55L54.2905 119.12L23.0205 105.19L-13.2995 141.51L2.49048 172.43L24.4205 172.91L28.2205 176.71L4.42047 200.51L0.620483 196.71L-0.819519 175.74L-77.0195 27.4601L-70.1395 20.5801L84.7005 87.94L104.47 92.86L104.5 92.84ZM17.7205 102.9L-46.3595 74.3101L-47.4595 75.41L-15.9795 136.6L17.7205 102.9Z" stroke="#D9D9D9" stroke-width="2" stroke-miterlimit="10"/>
<path d="M158.401 -40.0601C182.961 -1.19012 181.661 28.5999 160.891 49.3699C132.691 77.5699 83.6308 73.0799 45.4608 34.8999C3.49077 -7.0701 4.81074 -59.6701 32.0507 -86.9101C40.1707 -95.0301 50.0107 -100.31 60.4107 -103.12L69.9508 -120.26L72.5607 -122.87L90.4107 -105.02L128.441 -66.7101L125.831 -64.1001L55.2907 -91.1701C51.1907 -90.8701 46.7308 -89.8301 44.5308 -87.6301C27.4708 -70.5701 31.2907 -38.6901 66.2407 -3.75012C101.191 31.1899 133.621 34.4599 150.671 17.4099C162.781 5.29985 165.371 -14.3801 154.071 -39.1701L158.391 -40.0701L158.401 -40.0601Z" stroke="#D9D9D9" stroke-width="2" stroke-miterlimit="10"/>
<path d="M4.41051 395.201C28.9705 434.071 27.6706 463.861 6.90056 484.631C-21.2994 512.831 -70.3595 508.341 -108.529 470.161C-150.499 428.191 -149.179 375.591 -121.939 348.351C-113.819 340.231 -103.979 334.951 -93.5795 332.141L-84.0394 315.001L-81.4295 312.391L-63.5795 330.241L-25.5495 368.551L-28.1594 371.161L-98.6995 344.091C-102.799 344.391 -107.259 345.431 -109.459 347.631C-126.519 364.691 -122.699 396.571 -87.7495 431.511C-51.6695 467.591 -20.3695 469.721 -3.31947 452.671C8.79053 440.561 11.3806 420.881 0.0805511 396.091L4.40056 395.191L4.41051 395.201Z" stroke="#D9D9D9" stroke-width="2" stroke-miterlimit="10"/>
<path d="M65.5397 262.661L62.7897 265.411L-2.42023 241.741L-10.2603 249.581L97.7997 357.641L120.39 358.221L124.19 362.021L75.2197 410.991L71.4197 407.191L70.8398 384.601L-37.2202 276.541L-44.9202 284.241L-21.2502 349.451L-24.0002 352.201L-72.2402 303.961L17.3098 214.411L65.5497 262.651L65.5397 262.661Z" stroke="#D9D9D9" stroke-width="2" stroke-miterlimit="10"/>
<path d="M245.14 233.47L248.94 237.27L204.23 281.98L200.43 278.18L194.93 259.75L163.66 245.82L127.34 282.14L143.13 313.06L165.06 313.54L168.86 317.34L145.06 341.14L141.26 337.34L139.82 316.37L63.6201 168.09L70.5001 161.21L225.34 228.57L245.11 233.49L245.14 233.47ZM158.36 243.53L94.2802 214.94L93.1801 216.04L124.66 277.23L158.36 243.53Z" stroke="#D9D9D9" stroke-width="2" stroke-miterlimit="10"/>
<path d="M299.04 100.57C323.6 139.44 322.3 169.23 301.53 190C273.33 218.2 224.27 213.71 186.1 175.53C144.13 133.56 145.45 80.9602 172.69 53.7202C180.81 45.6002 190.65 40.3203 201.05 37.5103L210.59 20.3702L213.2 17.7603L231.05 35.6102L269.08 73.9202L266.47 76.5303L195.93 49.4603C191.83 49.7603 187.37 50.8002 185.17 53.0002C168.11 70.0602 171.93 101.94 206.88 136.88C242.96 172.96 274.26 175.09 291.31 158.04C303.42 145.93 306.01 126.25 294.71 101.46L299.03 100.56L299.04 100.57Z" stroke="#D9D9D9" stroke-width="2" stroke-miterlimit="10"/>
<path d="M360.17 -31.9697L357.42 -29.2197L292.21 -52.8898L284.37 -45.0497L392.43 63.0103L415.02 63.5903L418.82 67.3903L369.85 116.36L366.05 112.56L365.47 89.9702L257.41 -18.0898L249.71 -10.3898L273.38 54.8203L270.63 57.5703L222.39 9.33026L311.94 -80.2197L360.18 -31.9797L360.17 -31.9697Z" stroke="#D9D9D9" stroke-width="2" stroke-miterlimit="10"/>
<path d="M90.2299 667.82L94.03 671.62L49.3199 716.33L45.52 712.531L40.02 694.1L8.74994 680.171L-27.5701 716.49L-11.7801 747.411L10.15 747.891L13.95 751.69L-9.85004 775.49L-13.6501 771.69L-15.0901 750.72L-91.29 602.44L-84.41 595.561L70.4299 662.921L90.2 667.84L90.2299 667.82ZM3.44995 677.88L-60.6301 649.291L-61.73 650.391L-30.2501 711.58L3.44995 677.88Z" stroke="#D9D9D9" stroke-width="2" stroke-miterlimit="10"/>
<path d="M144.13 534.92C168.69 573.79 167.39 603.58 146.62 624.35C118.42 652.55 69.3602 648.06 31.1902 609.88C-10.7798 567.91 -9.45974 515.31 17.7803 488.07C25.9003 479.95 35.7402 474.67 46.1402 471.86L55.6802 454.72L58.2902 452.11L76.1402 469.96L114.17 508.27L111.56 510.88L41.0202 483.81C36.9202 484.11 32.4602 485.15 30.2602 487.35C13.2002 504.41 17.0202 536.29 51.9702 571.23C88.0502 607.31 119.35 609.44 136.4 592.39C148.51 580.28 151.1 560.6 139.8 535.81L144.12 534.91L144.13 534.92Z" stroke="#D9D9D9" stroke-width="2" stroke-miterlimit="10"/>
<path d="M205.26 402.371L202.51 405.121L137.299 381.451L129.46 389.291L237.52 497.351L260.109 497.931L263.91 501.731L214.94 550.701L211.14 546.901L210.56 524.311L102.5 416.251L94.7995 423.951L118.469 489.161L115.719 491.911L67.4795 443.671L157.03 354.121L205.27 402.361L205.26 402.371Z" stroke="#D9D9D9" stroke-width="2" stroke-miterlimit="10"/>
<path d="M384.86 373.191L388.66 376.991L343.95 421.701L340.15 417.901L334.65 399.471L303.38 385.541L267.06 421.861L282.85 452.781L304.78 453.261L308.58 457.061L284.78 480.861L280.98 477.061L279.54 456.091L203.34 307.811L210.22 300.931L365.06 368.291L384.83 373.211L384.86 373.191ZM298.08 383.251L234 354.661L232.9 355.761L264.38 416.951L298.08 383.251Z" stroke="#D9D9D9" stroke-width="2" stroke-miterlimit="10"/>
<path d="M438.76 240.291C463.32 279.161 462.02 308.95 441.25 329.72C413.05 357.92 363.99 353.43 325.82 315.25C283.85 273.28 285.17 220.68 312.41 193.44C320.53 185.32 330.37 180.04 340.77 177.23L350.31 160.09L352.92 157.48L370.77 175.33L408.8 213.641L406.19 216.25L335.65 189.181C331.55 189.481 327.09 190.52 324.89 192.72C307.83 209.78 311.65 241.66 346.6 276.6C382.68 312.68 413.98 314.81 431.03 297.76C443.14 285.65 445.73 265.971 434.43 241.181L438.75 240.281L438.76 240.291Z" stroke="#D9D9D9" stroke-width="2" stroke-miterlimit="10"/>
<path d="M499.89 107.75L497.14 110.5L431.93 86.8305L424.09 94.6705L532.15 202.73L554.74 203.311L558.54 207.11L509.57 256.08L505.77 252.281L505.19 229.69L397.13 121.63L389.43 129.33L413.1 194.541L410.35 197.291L362.11 149.051L451.66 59.5005L499.9 107.74L499.89 107.75Z" stroke="#D9D9D9" stroke-width="2" stroke-miterlimit="10"/>
<path d="M283.85 674.64C308.41 713.51 307.11 743.3 286.34 764.07C258.14 792.27 209.08 787.78 170.91 749.6C128.94 707.63 130.26 655.03 157.5 627.79C165.62 619.67 175.46 614.39 185.86 611.58L195.4 594.44L198.01 591.83L215.86 609.68L253.89 647.99L251.281 650.6L180.74 623.53C176.64 623.83 172.18 624.87 169.98 627.07C152.92 644.13 156.74 676.01 191.69 710.95C227.77 747.03 259.07 749.16 276.12 732.11C288.23 720 290.82 700.32 279.52 675.53L283.84 674.63L283.85 674.64Z" stroke="#D9D9D9" stroke-width="2" stroke-miterlimit="10"/>
<path d="M344.981 542.09L342.231 544.84L277.021 521.17L269.181 529.01L377.241 637.07L399.831 637.65L403.631 641.45L354.661 690.42L350.861 686.62L350.281 664.03L242.221 555.97L234.521 563.67L258.191 628.88L255.441 631.63L207.201 583.39L296.751 493.84L344.991 542.08L344.981 542.09Z" stroke="#D9D9D9" stroke-width="2" stroke-miterlimit="10"/>
<path d="M524.58 512.91L528.38 516.71L483.671 561.42L479.87 557.62L474.37 539.19L443.1 525.26L406.781 561.58L422.57 592.5L444.5 592.98L448.301 596.78L424.5 620.58L420.7 616.78L419.26 595.81L343.061 447.53L349.94 440.65L504.781 508.01L524.551 512.93L524.58 512.91ZM437.801 522.97L373.72 494.38L372.62 495.48L404.1 556.67L437.801 522.97Z" stroke="#D9D9D9" stroke-width="2" stroke-miterlimit="10"/>
<path d="M484.7 681.811L481.95 684.561L416.74 660.891L408.9 668.73L516.96 776.791L539.55 777.37L543.35 781.171L494.38 830.141L490.58 826.34L490 803.75L381.94 695.69L374.24 703.391L397.91 768.6L395.16 771.35L346.92 723.11L436.47 633.561L484.71 681.801L484.7 681.811Z" stroke="#D9D9D9" stroke-width="2" stroke-miterlimit="10"/>
<path d="M540.72 -62.1096L544.52 -58.3096L499.81 -13.5996L496.01 -17.3997L490.51 -35.8297L459.24 -49.7596L422.92 -13.4396L438.71 17.4803L460.64 17.9604L464.44 21.7604L440.64 45.5604L436.84 41.7604L435.4 20.7903L359.2 -127.49L366.08 -134.37L520.92 -67.0096L540.69 -62.0897L540.72 -62.1096ZM453.94 -52.0496L389.86 -80.6396L388.76 -79.5396L420.24 -18.3496L453.94 -52.0496Z" stroke="#D9D9D9" stroke-width="2" stroke-miterlimit="10"/>
</g>
</svg>
