<svg width="1440" height="811" viewBox="0 0 1440 811" fill="none" xmlns="http://www.w3.org/2000/svg">
<mask id="mask0_196_1598" style="mask-type:luminance" maskUnits="userSpaceOnUse" x="0" y="0" width="1440" height="811">
<path d="M1440 0.959961H0V810.96H1440V0.959961Z" fill="white"/>
</mask>
<g mask="url(#mask0_196_1598)">
<path d="M65.8098 -46.1298L72.5696 -39.3698L-6.96027 40.1603L-13.7203 33.4003L-23.5003 0.610229L-79.1203 -24.1798L-143.73 40.4303L-115.63 95.4502L-76.6103 96.3003L-69.8503 103.06L-112.19 145.4L-118.95 138.64L-121.51 101.33L-257.07 -162.46L-244.83 -174.7L30.6397 -54.8698L65.8196 -46.1198L65.8098 -46.1298ZM-88.5803 -28.2397L-202.59 -79.1097L-204.55 -77.1498L-148.54 31.7202L-88.5803 -28.2397Z" stroke="#D9D9D9" stroke-width="2" stroke-miterlimit="10"/>
<path d="M-5.12048 254.34L-10.0105 259.23L-126.021 217.12L-139.97 231.07L52.2695 423.31L92.4595 424.34L99.2195 431.1L12.0995 518.22L5.33948 511.46L4.30957 471.27L-187.93 279.03L-201.63 292.73L-159.521 408.74L-164.41 413.63L-250.23 327.81L-90.9205 168.5L-5.10046 254.32L-5.12048 254.34Z" stroke="#D9D9D9" stroke-width="2" stroke-miterlimit="10"/>
<path d="M314.37 202.43L321.13 209.19L241.6 288.72L234.84 281.96L225.06 249.17L169.44 224.38L104.83 288.99L132.93 344.01L171.95 344.86L178.71 351.62L136.37 393.96L129.61 387.2L127.05 349.89L-8.50977 86.1003L3.73022 73.8604L279.2 193.69L314.38 202.44L314.37 202.43ZM159.98 220.32L45.9702 169.45L44.0103 171.41L100.02 280.28L159.98 220.32Z" stroke="#D9D9D9" stroke-width="2" stroke-miterlimit="10"/>
<path d="M410.261 -34.0096C453.961 35.1404 451.641 88.1303 414.691 125.08C364.521 175.25 277.241 167.25 209.331 99.3403C134.661 24.6703 137.021 -68.8996 185.471 -117.36C199.911 -131.8 217.421 -141.2 235.931 -146.19L252.911 -176.68L257.561 -181.33L289.321 -149.57L356.981 -81.4197L352.331 -76.7697L226.841 -124.93C219.551 -124.39 211.611 -122.54 207.701 -118.62C177.351 -88.2696 184.151 -31.5596 246.321 30.6104C310.511 94.8004 366.181 98.5904 396.531 68.2504C418.071 46.7104 422.681 11.6903 402.581 -32.3997L410.271 -34.0096H410.261Z" stroke="#D9D9D9" stroke-width="2" stroke-miterlimit="10"/>
<path d="M134.681 738.7C178.381 807.85 176.06 860.84 139.11 897.79C88.9405 947.96 1.66049 939.96 -66.2495 872.05C-140.92 797.38 -138.559 703.81 -90.1095 655.35C-75.6695 640.91 -58.1595 631.51 -39.6495 626.52L-22.6695 596.03L-18.0195 591.38L13.7405 623.14L81.4005 691.29L76.7505 695.94L-48.7395 647.78C-56.0295 648.32 -63.9695 650.17 -67.8795 654.09C-98.2295 684.44 -91.4295 741.15 -29.2595 803.32C34.9305 867.51 90.6004 871.3 120.95 840.96C142.49 819.42 147.1 784.4 127 740.31L134.69 738.7H134.681Z" stroke="#D9D9D9" stroke-width="2" stroke-miterlimit="10"/>
<path d="M243.44 502.91L238.55 507.8L122.54 465.69L108.59 479.64L300.83 671.88L341.02 672.91L347.78 679.67L260.66 766.79L253.9 760.03L252.87 719.84L60.6301 527.6L46.9302 541.3L89.0402 657.31L84.1501 662.2L-1.66992 576.38L157.64 417.07L243.46 502.89L243.44 502.91Z" stroke="#D9D9D9" stroke-width="2" stroke-miterlimit="10"/>
<path d="M562.93 450.99L569.69 457.75L490.16 537.28L483.4 530.52L473.62 497.73L418 472.94L353.39 537.55L381.49 592.57L420.51 593.42L427.27 600.18L384.93 642.52L378.17 635.76L375.61 598.45L240.05 334.66L252.29 322.42L527.76 442.25L562.94 451L562.93 450.99ZM408.54 468.88L294.53 418.01L292.57 419.97L348.58 528.84L408.54 468.88Z" stroke="#D9D9D9" stroke-width="2" stroke-miterlimit="10"/>
<path d="M658.82 214.56C702.52 283.71 700.2 336.7 663.25 373.65C613.08 423.82 525.8 415.82 457.89 347.91C383.22 273.24 385.58 179.67 434.03 131.21C448.47 116.77 465.98 107.37 484.49 102.38L501.47 71.8898L506.12 67.2397L537.88 98.9998L605.54 167.15L600.89 171.8L475.4 123.64C468.11 124.18 460.17 126.03 456.26 129.95C425.91 160.3 432.71 217.01 494.88 279.18C559.07 343.37 614.74 347.16 645.09 316.82C666.63 295.28 671.24 260.26 651.14 216.17L658.83 214.56H658.82Z" stroke="#D9D9D9" stroke-width="2" stroke-miterlimit="10"/>
<path d="M767.58 -21.2401L762.69 -16.3501L646.68 -58.4601L632.73 -44.5101L824.97 147.73L865.16 148.76L871.92 155.52L784.8 242.64L778.04 235.88L777.01 195.69L584.77 3.44983L571.07 17.1499L613.18 133.16L608.29 138.05L522.47 52.2299L681.78 -107.08L767.6 -21.2601L767.58 -21.2401Z" stroke="#D9D9D9" stroke-width="2" stroke-miterlimit="10"/>
<path d="M1088.78 -74.8499L1095.54 -68.0898L1016.01 11.4401L1009.25 4.68018L999.469 -28.1099L943.849 -52.8999L879.239 11.7101L907.339 66.7301L946.359 67.5801L953.119 74.3401L910.779 116.68L904.019 109.92L901.459 72.6101L765.899 -191.18L778.139 -203.42L1053.61 -83.5898L1088.79 -74.8398L1088.78 -74.8499ZM934.389 -56.9598L820.379 -107.83L818.419 -105.87L874.429 3.00012L934.389 -56.9598Z" stroke="#D9D9D9" stroke-width="2" stroke-miterlimit="10"/>
<path d="M493.63 753.09L488.74 757.98L372.729 715.87L358.78 729.82L551.02 922.06L591.209 923.09L597.969 929.85L510.849 1016.97L504.089 1010.21L503.06 970.02L310.819 777.78L297.12 791.48L339.229 907.49L334.339 912.38L248.52 826.56L407.829 667.25L493.65 753.07L493.63 753.09Z" stroke="#D9D9D9" stroke-width="2" stroke-miterlimit="10"/>
<path d="M813.119 701.18L819.879 707.94L740.349 787.47L733.589 780.71L723.809 747.92L668.189 723.13L603.579 787.74L631.679 842.76L670.699 843.61L677.459 850.37L635.119 892.71L628.359 885.95L625.799 848.64L490.239 584.85L502.479 572.61L777.949 692.44L813.129 701.19L813.119 701.18ZM658.729 719.07L544.719 668.2L542.759 670.16L598.769 779.03L658.729 719.07Z" stroke="#D9D9D9" stroke-width="2" stroke-miterlimit="10"/>
<path d="M909.01 464.74C952.71 533.89 950.39 586.88 913.44 623.83C863.27 674 775.99 666 708.08 598.09C633.41 523.42 635.77 429.85 684.22 381.39C698.66 366.95 716.17 357.55 734.68 352.56L751.66 322.07L756.31 317.42L788.07 349.18L855.73 417.33L851.08 421.98L725.59 373.82C718.3 374.36 710.36 376.21 706.45 380.13C676.1 410.48 682.9 467.19 745.07 529.36C809.26 593.55 864.93 597.34 895.28 567C916.82 545.46 921.43 510.44 901.33 466.35L909.02 464.74H909.01Z" stroke="#D9D9D9" stroke-width="2" stroke-miterlimit="10"/>
<path d="M1017.77 228.95L1012.88 233.84L896.869 191.73L882.919 205.68L1075.16 397.92L1115.35 398.95L1122.11 405.71L1034.99 492.83L1028.23 486.07L1027.2 445.88L834.959 253.64L821.259 267.34L863.369 383.35L858.479 388.24L772.659 302.42L931.969 143.11L1017.79 228.93L1017.77 228.95Z" stroke="#D9D9D9" stroke-width="2" stroke-miterlimit="10"/>
<path d="M1157.57 713.31C1201.27 782.46 1198.95 835.45 1162 872.4C1111.83 922.57 1024.55 914.57 956.64 846.66C881.97 771.99 884.33 678.42 932.78 629.96C947.22 615.52 964.73 606.12 983.24 601.13L1000.22 570.64L1004.87 565.99L1036.63 597.75L1104.29 665.9L1099.64 670.55L974.15 622.39C966.86 622.93 958.92 624.78 955.01 628.7C924.66 659.05 931.46 715.76 993.63 777.93C1057.82 842.12 1113.49 845.91 1143.84 815.57C1165.38 794.03 1169.99 759.01 1149.89 714.92L1157.58 713.31H1157.57Z" stroke="#D9D9D9" stroke-width="2" stroke-miterlimit="10"/>
<path d="M1266.33 477.51L1261.44 482.4L1145.43 440.29L1131.48 454.24L1323.72 646.48L1363.91 647.51L1370.67 654.27L1283.55 741.39L1276.79 734.63L1275.76 694.44L1083.52 502.2L1069.82 515.9L1111.93 631.91L1107.04 636.8L1021.22 550.98L1180.53 391.67L1266.35 477.49L1266.33 477.51Z" stroke="#D9D9D9" stroke-width="2" stroke-miterlimit="10"/>
<path d="M1514.9 726.07L1510.01 730.96L1394 688.85L1380.05 702.8L1572.29 895.04L1612.48 896.07L1619.24 902.83L1532.12 989.95L1525.36 983.19L1524.33 943L1332.09 750.76L1318.39 764.46L1360.5 880.47L1355.61 885.36L1269.79 799.54L1429.1 640.23L1514.92 726.05L1514.9 726.07Z" stroke="#D9D9D9" stroke-width="2" stroke-miterlimit="10"/>
<path d="M1338.96 175.34L1345.72 182.1L1266.19 261.63L1259.43 254.87L1249.65 222.08L1194.03 197.29L1129.42 261.9L1157.52 316.92L1196.54 317.77L1203.3 324.53L1160.96 366.87L1154.2 360.11L1151.64 322.8L1016.08 59.01L1028.32 46.77L1303.79 166.6L1338.97 175.35L1338.96 175.34ZM1184.57 193.23L1070.56 142.36L1068.6 144.32L1124.61 253.19L1184.57 193.23Z" stroke="#D9D9D9" stroke-width="2" stroke-miterlimit="10"/>
<path d="M1434.85 -61.0999C1478.55 8.05015 1476.23 61.0401 1439.28 97.9901C1389.11 148.16 1301.83 140.16 1233.92 72.2501C1159.25 -2.41988 1161.61 -95.9898 1210.06 -144.45C1224.5 -158.89 1242.01 -168.29 1260.52 -173.28L1277.5 -203.77L1282.15 -208.42L1313.91 -176.66L1381.57 -108.51L1376.92 -103.86L1251.43 -152.02C1244.14 -151.48 1236.2 -149.63 1232.29 -145.71C1201.94 -115.36 1208.74 -58.6499 1270.91 3.52014C1335.1 67.7101 1390.77 71.5002 1421.12 41.1602C1442.66 19.6202 1447.27 -15.3999 1427.17 -59.4899L1434.86 -61.0999H1434.85Z" stroke="#D9D9D9" stroke-width="2" stroke-miterlimit="10"/>
<path d="M1587.53 423.9L1594.29 430.66L1514.76 510.19L1508 503.43L1498.22 470.64L1442.6 445.85L1377.99 510.46L1406.09 565.48L1445.11 566.33L1451.87 573.09L1409.53 615.43L1402.77 608.67L1400.21 571.36L1264.65 307.57L1276.89 295.33L1552.36 415.16L1587.54 423.91L1587.53 423.9ZM1433.14 441.79L1319.13 390.92L1317.17 392.88L1373.18 501.75L1433.14 441.79Z" stroke="#D9D9D9" stroke-width="2" stroke-miterlimit="10"/>
<path d="M1683.42 187.46C1727.12 256.61 1724.8 309.6 1687.85 346.55C1637.68 396.72 1550.4 388.72 1482.49 320.81C1407.82 246.14 1410.18 152.57 1458.63 104.11C1473.07 89.6701 1490.58 80.2702 1509.09 75.2802L1526.07 44.7902L1530.72 40.1401L1562.48 71.9001L1630.14 140.05L1625.49 144.7L1500 96.5402C1492.71 97.0802 1484.77 98.9301 1480.86 102.85C1450.51 133.2 1457.31 189.91 1519.48 252.08C1583.67 316.27 1639.34 320.06 1669.69 289.72C1691.23 268.18 1695.84 233.16 1675.74 189.07L1683.43 187.46H1683.42Z" stroke="#D9D9D9" stroke-width="2" stroke-miterlimit="10"/>
</g>
</svg>
