<svg width="1104" height="1199" viewBox="0 0 1104 1199" fill="none" xmlns="http://www.w3.org/2000/svg">
<path d="M0 738.065C0 668.491 24.6229 605.913 72.3798 552.448C27.3829 502.696 0 442.796 0 372.272C0 301.747 24.6229 240.12 72.3798 186.654C27.3467 136.903 0 77.0024 0 6.47805H10.895C10.895 76.7864 39.7308 133.275 80.3695 178.017C113.926 142.992 157.688 112.027 211.292 85.8125C322.822 31.2674 471.649 0 619.64 0C748.094 0 868.956 19.1318 959.931 53.8973C1052.83 89.3539 1104 137.464 1104 189.375C1104 241.286 1052.83 289.396 959.967 324.896C899.753 347.871 826.393 363.98 746.459 372.315C826.393 380.607 899.753 396.716 959.967 419.734C1052.83 455.148 1104 503.301 1104 555.169C1104 607.036 1052.83 655.19 959.967 690.689C868.993 725.455 748.13 744.587 619.677 744.587C437.256 744.587 201.959 686.5 80.5146 561.172C25.4944 622.627 10.895 687.062 10.895 738.109C10.895 876.221 122.17 961.04 215.505 1007.9C322.386 1061.54 465.366 1094.49 601.446 1097.21L454.471 1000.9L459.737 989.543L631.589 1102.13L619.677 1108.83V1110.29C618.805 1110.29 617.933 1110.29 617.062 1110.29L459.446 1199L454.798 1187.3L592.366 1109.86C337.53 1102.05 0.0362549 985.829 0.0362549 738.022L0 738.065ZM956.626 312.544C1043.35 279.42 1093.1 234.505 1093.1 189.375C1093.1 144.244 1043.35 99.33 956.626 66.2056C866.705 31.872 747.04 12.9561 619.677 12.9561C473.065 12.9561 325.727 43.878 215.469 97.8185C159.904 124.983 118.756 155.344 88.577 186.697C126.383 225.479 172.833 254.846 215.505 276.267C327.143 332.324 478.258 365.794 619.677 365.794C747.04 365.794 866.705 346.878 956.626 312.544ZM215.505 642.061C327.143 698.117 478.258 731.587 619.677 731.587C747.04 731.587 866.705 712.672 956.626 678.338C1043.35 645.213 1093.1 600.299 1093.1 555.169C1093.1 510.038 1043.35 465.124 956.626 431.999C866.705 397.666 747.04 378.75 619.677 378.75C473.065 378.75 325.727 409.672 215.469 463.612C159.904 490.777 118.756 521.137 88.577 552.491C126.419 591.273 172.833 620.64 215.505 642.061ZM80.3695 543.81C113.926 508.786 157.688 477.821 211.292 451.606C294.276 411.01 397.889 383.328 506.477 371.797C348.607 353.097 177.953 295.874 80.5146 195.335C25.4944 256.79 10.895 321.225 10.895 372.272C10.895 442.58 39.7308 499.069 80.3695 543.81Z" fill="url(#paint0_linear_20_23686)" fill-opacity="0.4"/>
<defs>
<linearGradient id="paint0_linear_20_23686" x1="552" y1="0" x2="552" y2="1199" gradientUnits="userSpaceOnUse">
<stop stop-color="#FA50B9"/>
<stop offset="1" stop-color="#5D4FE5"/>
</linearGradient>
</defs>
</svg>
