<svg width="320" height="520" viewBox="0 0 320 520" fill="none" xmlns="http://www.w3.org/2000/svg">
<path d="M3.05176e-05 320.095C3.05176e-05 289.921 7.13708 262.781 20.9796 239.594C7.9371 218.017 3.05176e-05 192.038 3.05176e-05 161.452C3.05176e-05 130.866 7.13708 104.139 20.9796 80.9509C7.92657 59.374 3.05176e-05 33.3955 3.05176e-05 2.80949H3.15802C3.15802 33.3019 11.5162 57.8007 23.2955 77.2049C33.0222 62.0149 45.7068 48.5855 61.2441 37.2164C93.5715 13.5605 136.71 0 179.606 0C216.839 0 251.871 8.29737 278.241 23.375C305.168 38.7523 320 59.6175 320 82.1309C320 104.644 305.168 125.509 278.251 140.906C260.798 150.87 239.534 157.856 216.365 161.471C239.534 165.067 260.798 172.053 278.251 182.037C305.168 197.395 320 218.279 320 240.774C320 263.268 305.168 284.152 278.251 299.548C251.882 314.626 216.849 322.923 179.616 322.923C126.741 322.923 58.5388 297.732 23.3376 243.377C7.38971 270.03 3.15802 297.975 3.15802 320.114C3.15802 380.012 35.4117 416.798 62.4652 437.12C93.4452 460.383 134.889 474.673 174.332 475.853L131.731 434.086L133.257 429.16L183.069 477.989L179.616 480.892V481.529C179.364 481.529 179.111 481.529 178.859 481.529L133.173 520L131.825 514.924L171.7 481.341C97.8348 477.951 0.0105286 427.549 0.0105286 320.076L3.05176e-05 320.095ZM277.283 135.549C302.42 121.183 316.842 101.704 316.842 82.1309C316.842 62.5581 302.42 43.0789 277.283 28.713C251.219 13.8227 216.533 5.61899 179.616 5.61899C137.12 5.61899 94.4136 19.0296 62.4547 42.4234C46.3489 54.2045 34.4222 67.3717 25.6745 80.9696C36.6328 97.7891 50.0964 110.526 62.4652 119.816C94.8242 144.127 138.626 158.643 179.616 158.643C216.533 158.643 251.219 150.439 277.283 135.549ZM62.4652 278.458C94.8242 302.77 138.626 317.286 179.616 317.286C216.533 317.286 251.219 309.082 277.283 294.192C302.42 279.826 316.842 260.346 316.842 240.774C316.842 221.201 302.42 201.722 277.283 187.356C251.219 172.466 216.533 164.262 179.616 164.262C137.12 164.262 94.4136 177.672 62.4547 201.066C46.3489 212.847 34.4222 226.014 25.6745 239.612C36.6433 256.432 50.0964 269.168 62.4652 278.458ZM23.2955 235.848C33.0222 220.658 45.7068 207.228 61.2441 195.859C85.2975 178.253 115.33 166.247 146.805 161.246C101.045 153.136 51.5806 128.319 23.3376 84.7156C7.38971 111.368 3.15802 139.313 3.15802 161.452C3.15802 191.945 11.5162 216.443 23.2955 235.848Z" fill="url(#paint0_linear_155_5322)" fill-opacity="0.4"/>
<defs>
<linearGradient id="paint0_linear_155_5322" x1="160" y1="0" x2="160" y2="520" gradientUnits="userSpaceOnUse">
<stop stop-color="#FA50B9"/>
<stop offset="1" stop-color="#5D4FE5"/>
</linearGradient>
</defs>
</svg>
