<svg width="210" height="55" viewBox="0 0 210 55" fill="none" xmlns="http://www.w3.org/2000/svg">
<path d="M102.163 6.69417H101.321C101.471 7.03187 101.321 7.42852 100.989 7.58397C100.656 7.73941 100.265 7.58397 100.115 7.24627C100.013 7.02115 99.8628 6.8389 99.6805 6.69417H99.6644V6.68345C99.2462 6.36184 98.6779 6.26536 98.1685 6.50121C97.5359 6.79066 97.2035 7.47676 97.3322 8.14143H98.1685C98.0184 7.80373 98.1685 7.40708 98.501 7.25163C98.8334 7.10155 99.2301 7.25163 99.3802 7.58933C99.7127 8.33975 100.587 8.67744 101.326 8.33439C101.959 8.04494 102.286 7.35884 102.163 6.69953M106.827 14.7988C106.827 12.451 108.446 10.7679 110.698 10.7679C112.966 10.7679 114.591 12.4457 114.591 14.7934C114.591 17.1412 112.966 18.8511 110.704 18.8564C108.452 18.8564 106.827 17.1465 106.827 14.7988ZM105.09 14.7988C105.09 18.0792 107.455 20.4431 110.704 20.4431C113.969 20.4431 116.328 18.0739 116.328 14.7934C116.328 11.5451 113.963 9.1813 110.698 9.1813C107.449 9.1813 105.09 11.5505 105.09 14.7988ZM97.7343 16.514L99.7448 11.0091L101.761 16.514H97.7289H97.7343ZM98.7154 9.33139L94.5335 20.3091H96.3617L97.2196 17.9452H102.281L103.144 20.3037H104.988L100.78 9.33139H98.7154ZM88.6251 21.3114V22.1315C88.9897 22.1315 89.2899 22.4317 89.2899 22.8069C89.2899 23.1821 88.9951 23.4769 88.6251 23.4769V24.297C89.4401 24.297 90.0942 23.627 90.0942 22.8069C90.0942 21.9868 89.4347 21.3114 88.6251 21.3114ZM83.2851 14.8095C83.2851 18.0899 85.6495 20.4538 88.8986 20.4538C91.8045 20.4538 94.008 18.5831 94.4155 15.8708H92.6677C92.2763 17.6343 90.8233 18.8672 88.9039 18.8725C86.6521 18.8725 85.0276 17.1626 85.0276 14.8149C85.0276 12.4671 86.6467 10.784 88.8986 10.784C90.8341 10.784 92.2763 12.0061 92.6677 13.7482H94.4155C93.992 11.052 91.8045 9.19738 88.8986 9.20274C85.6495 9.20274 83.2905 11.5666 83.2905 14.8202M75.9292 16.5355L77.9451 11.0306L79.961 16.5301H75.9292V16.5355ZM76.9103 9.35283L72.7284 20.3305H74.5566L75.4145 17.9667H80.4757L81.3389 20.3251H83.1832L78.9745 9.35283H76.9103ZM71.4577 9.35283H69.7528V20.3251H71.4631V9.34747L71.4577 9.35283ZM56.9013 14.8309C56.9013 18.1114 59.2657 20.4752 62.5148 20.4752C65.4207 20.4752 67.6242 18.6045 68.0264 15.8923H66.2785C65.8871 17.6504 64.4342 18.8886 62.5148 18.8886C60.2629 18.8886 58.6384 17.1787 58.6384 14.8309C58.6384 12.4832 60.2576 10.8001 62.5094 10.8001C64.4449 10.8001 65.8871 12.0222 66.2785 13.7643H68.0264C67.6028 11.0681 65.4153 9.21346 62.5094 9.21346C59.2603 9.21346 56.9013 11.5827 56.9013 14.8309ZM46.2105 14.8309C46.2105 12.4832 47.835 10.8001 50.0869 10.8001C52.3494 10.8001 53.9793 12.4778 53.9793 14.8256C53.9793 17.1733 52.3601 18.8886 50.0922 18.8886C47.8243 18.8886 46.2159 17.1787 46.2159 14.8309M44.4841 14.8309C44.4841 18.1114 46.8485 20.4752 50.0976 20.4752C53.3627 20.4752 55.7218 18.106 55.7218 14.8256C55.7218 11.5773 53.3574 9.21346 50.0922 9.21346C46.8432 9.21346 44.4841 11.5827 44.4841 14.8309ZM36.592 16.8946H34.8925C34.9568 19.0387 36.5492 20.4806 39.1012 20.4752C41.5836 20.4752 43.3207 19.2209 43.3207 17.1894C43.3207 12.987 36.9459 15.0668 36.9405 12.3438C36.9405 11.2825 37.8305 10.6286 39.0959 10.6286C40.4577 10.6286 41.3316 11.3897 41.3745 12.6547H43.0312C42.9829 10.5482 41.3906 9.21346 39.1387 9.21346C36.8119 9.21346 35.1981 10.457 35.2034 12.4349C35.2034 16.5248 41.5782 14.5254 41.5782 17.2484C41.5782 18.3419 40.5971 19.0548 39.1709 19.0601C37.5464 19.0601 36.6081 18.1382 36.592 16.8893M27.0754 16.8893H25.3758C25.4348 19.0333 27.0325 20.4752 29.5792 20.4699C32.067 20.4699 33.7987 19.2156 33.7987 17.1841C33.7987 12.9817 27.4239 15.0614 27.4239 12.3385C27.4239 11.2771 28.3139 10.6232 29.5792 10.6232C30.9411 10.6232 31.815 11.3843 31.8632 12.6493H33.5199C33.4717 10.5428 31.8793 9.2081 29.6275 9.21346C27.3006 9.21346 25.6922 10.4517 25.6922 12.4349C25.6922 16.5248 32.067 14.5254 32.0723 17.2484C32.0723 18.3419 31.0912 19.0548 29.665 19.0601C28.0405 19.0601 27.1022 18.1382 27.0862 16.8893M17.7411 16.5462L19.7517 11.0413L21.7729 16.5462H17.7411ZM18.7223 9.36355L14.5403 20.3412H16.3686L17.2264 17.9774H22.2876L23.1455 20.3359H24.9898L20.7811 9.36355H18.7169H18.7223ZM160.088 34.9638H156.898L156.903 46.0648H164.404V43.2078H160.094V34.9638H160.088ZM148.658 42.1036L149.842 38.121L151.033 42.1036H148.658ZM147.902 34.9692L144.047 46.0701H147.483L148.03 44.2155H151.655L152.201 46.0648H155.638L151.773 34.9638H147.896L147.902 34.9692ZM144.588 34.9692H135.683V37.8261H138.54V46.0701H141.731V37.8261H144.583V34.9745L144.588 34.9692ZM134.337 34.9745H131.152V46.0755H134.342V34.9745H134.337ZM118.328 40.533C118.328 43.8456 120.751 46.2363 124.107 46.2363C127.469 46.2363 129.807 43.8564 129.807 40.5277C129.807 40.2597 129.791 39.9273 129.774 39.7183H124.118V42.1143H126.289C125.962 42.8915 125.121 43.4168 124.118 43.4168C122.633 43.4168 121.566 42.2001 121.566 40.517C121.566 38.8339 122.628 37.6171 124.113 37.6171C125.099 37.6171 125.844 38.1531 126.252 38.9625H129.581C129.094 36.5665 126.793 34.8244 124.091 34.8244C120.73 34.8244 118.312 37.2205 118.317 40.533M116.66 34.9799H113.47V46.0808H116.66V34.9799ZM106.162 37.8422C107.556 37.8422 108.57 38.9679 108.57 40.5223C108.57 42.0929 107.556 43.2346 106.162 43.2346H105.021V37.8422H106.157H106.162ZM106.189 34.9906H101.83V46.0916H106.189C109.454 46.0916 111.813 43.7545 111.813 40.533C111.813 37.3169 109.449 34.9852 106.184 34.9852M86.7004 40.533C86.7004 38.9464 87.7619 37.8047 89.231 37.8047C90.7 37.8047 91.7616 38.9464 91.7616 40.5277C91.7616 42.1304 90.7 43.2882 89.231 43.2882C87.7619 43.2882 86.7004 42.1304 86.695 40.533M83.4459 40.5491C83.4459 43.8617 85.8693 46.2577 89.2256 46.2524C92.5873 46.2524 95.0053 43.8564 95.0053 40.5438C95.0053 37.2312 92.5819 34.8352 89.2203 34.8405C85.864 34.8405 83.4406 37.2365 83.4459 40.5491ZM82.5023 35.0013H73.5969V37.8583H76.4546V46.1023H79.6447V37.8583H82.497V35.0067L82.5023 35.0013ZM68.1765 37.8637C68.8306 37.8637 69.2541 38.2764 69.2541 38.9411C69.2541 39.6057 68.8359 40.0345 68.1765 40.0345H66.1927V37.8637H68.1765ZM68.5303 35.0121H62.9973L63.0027 46.113H66.1874V42.6396H68.2462C68.8735 42.6396 69.2488 43.3043 69.297 44.3013C69.3238 44.8748 69.3399 45.7431 69.4043 46.1076H72.7337C72.5943 45.6467 72.5461 44.6014 72.4978 43.8724C72.4013 42.3984 71.8223 41.589 70.8411 41.1763C71.8866 40.6242 72.4978 39.6379 72.4925 38.3675C72.4925 36.3039 70.9484 35.0067 68.5196 35.0067M53.025 40.5491C53.025 38.9625 54.0865 37.8208 55.5556 37.8208C57.0246 37.8208 58.0862 38.9625 58.0915 40.5491C58.0915 42.1518 57.03 43.3096 55.5609 43.3096C54.0919 43.3096 53.0303 42.1518 53.0303 40.5491M49.7813 40.5652C49.7813 43.8832 52.2047 46.2738 55.5663 46.2684C58.9226 46.2684 61.346 43.8724 61.346 40.5598C61.346 37.2472 58.9172 34.8566 55.5609 34.8566C52.1993 34.8566 49.7813 37.258 49.7813 40.5652ZM44.4359 37.8744C45.0578 37.8744 45.5135 38.3514 45.5135 39C45.5135 39.6486 45.0632 40.1418 44.4359 40.1418H42.688V37.8744H44.4359ZM44.7897 35.0228H39.4926V46.1237H42.6773V42.8754H44.7844C47.0791 42.8754 48.7519 41.2245 48.7519 38.9518C48.7519 36.6683 47.0791 35.0228 44.779 35.0228M206.867 51.6715H27.3113V28.6763H206.883V51.6715H206.867ZM128.493 26.3071H2.32688V3.33334H128.509V26.3285L128.493 26.3071ZM209.199 26.3071H130.825V0.974854H0V28.687H24.9791V54.0461H209.205L209.21 26.3285L209.199 26.3071Z" fill="white"/>
</svg>
